<?xml version="1.0" encoding="UTF-8"?>
<svg id="Layer_1" xmlns="http://www.w3.org/2000/svg" xmlns:xlink="http://www.w3.org/1999/xlink" version="1.1" viewBox="0 0 500 500">
  <!-- Generator: Adobe Illustrator 29.1.0, SVG Export Plug-In . SVG Version: 2.1.0 Build 142)  -->
  <defs>
    <style>
      .st0 {
        fill: #ffe6ce;
      }

      .st1, .st2 {
        fill: #467e53;
      }

      .st2 {
        filter: url(#drop-shadow-1);
      }

      .st3 {
        fill: #ffd4a9;
      }

      .st4 {
        fill: #ffdbb8;
      }

      .st5 {
        fill: #fff;
      }

      .st6 {
        fill: #ffbf81;
      }

      .st7 {
        fill: #c5f3db;
      }

      .st8 {
        fill: #ebebe8;
      }

      .st9 {
        fill: #c5f3cb;
      }

      .st10 {
        fill: #fff1e2;
      }
    </style>
    <filter id="drop-shadow-1" x="34.16" y="328.59" width="431.52" height="96.96" filterUnits="userSpaceOnUse">
      <feOffset dx="0" dy="7"/>
      <feGaussianBlur result="blur" stdDeviation="4"/>
      <feFlood flood-color="#000" flood-opacity=".35"/>
      <feComposite in2="blur" operator="in"/>
      <feComposite in="SourceGraphic"/>
    </filter>
  </defs>
  <rect class="st8" y="0" width="500" height="500"/>
  <path class="st5" d="M106.35,236.07c-.26,0-.52-.02-.78-.06l-2.61-.43c-1.4-.13-2.59-.84-3.75-1.54l-.09-.05s-.07-.04-.09-.06c-.74-.46-1.33-1.06-1.79-1.75l-1.07-.64c-.49-.29-.91-.67-1.27-1.11l-.97-1.21s-.06-.08-.09-.11l-2.17-2.9c-.51-.68-.82-1.47-.91-2.29l-.12-.12c-.35-.36-.64-.76-.87-1.21l-.97-1.93c-.33-.66-.5-1.38-.5-2.12v-2.42q-.03-7.27.16-7.97s0,0,0,0c-1.97-3.97-3.06-8.2-3.06-12.08,0-1.03,0-2.01.01-2.94,0-.08,0-.15,0-.22v-.49c-.02-2.54.02-4.72.17-6.49.18-4.34.48-7.05.84-8.9-.47-.38-.86-.85-1.16-1.39-.65-1.19-.77-2.17-.82-7.01v-.28c-.04-1.58.22-3.06.39-4.05.04-.23.08-.44.1-.61.03-.59.16-1.16.4-1.7l1.93-4.35,1.42-3.32c.08-.2.18-.39.29-.57l1.36-2.26,1.34-2.68c-.91-1.42-.93-3.15-.95-4.5v-.14c-.02-2.81.5-5.25.81-6.71.06-.3.12-.55.16-.75.03-.96.35-1.89.92-2.67l4.1-5.55c.07-.09.14-.18.21-.26l1.45-1.7c.06-.07.12-.14.18-.2l5.32-5.55c.32-.33.68-.62,1.08-.84v-.04c.08-.21.17-.42.27-.62l1.45-2.9c.14-.28.31-.54.5-.79l1.7-2.18c.07-.08.13-.17.2-.24v-3.36c0-.74.17-1.46.5-2.12l.97-1.93c.17-.34.38-.66.63-.95l.82-.99c.23-.46.54-.89.91-1.25.24-.23.51-.48.82-.76l1.56-1.84c.21-.25.44-.47.7-.67l1.8-1.4c-.8-3.32.11-7.09,1.77-9.57.21-.31.4-.52.61-.76.76-.84,1.04-1.22,1.14-1.38.36-.83.95-1.54,1.69-2.05.72-.65,2.88-2.98,3.61-3.76.03-.03.06-.06.08-.09,2.92-2.99,8.59-7.12,16.83-12.27.22-.14.38-.24.48-.3.15-.1.3-.19.46-.28.28-.15.43-.22,3.89-1.68.27-.12.57-.24.88-.37-.02-.17-.03-.35-.03-.53v-.97c0-1.23.48-2.42,1.34-3.3.14-.15.39-.48.59-.72.26-.32.47-.57.54-.65.04-.04.08-.09.12-.13.49-.49.87-.72,2.46-1.69.99-.6,3.28-1.99,3.89-2.49.42-.4.9-.72,1.44-.95l6.5-2.75c1.69-.83,3.36-1.58,4.72-2.12.2-.08.4-.14.6-.2l.39-.1.36-.15c.66-.28,1.37-.4,2.09-.37.08,0,.16,0,.24,0h.58c1.27,0,3.14,0,4.7.03.95.02,1.97.04,2.95.19.35-.11.7-.18,1.07-.21.56-.29,1.27-.62,2.17-.99,1.16-.6,1.73-.88,2.06-1.03.29-.13.58-.23.88-.29.03-.01.06-.03.09-.04.56-.27,1.26-.61,2.02-.84.03-.01.07-.02.1-.03.03,0,1.23-.31,2.84-.48,3.34-.99,7.57-2.12,12.63-3.39.94-.27,1.77-.21,2.34-.16.03,0,.06,0,.09,0h.05c.14-.05.28-.1.43-.15,1.35-.46,2.46-.84,3.65-.83.63-.23,1.4-.47,2.39-.78.79-.24,1.91-.59,2.58-.84.18-.17.34-.31.49-.45.14-.12.29-.25.42-.38.89-1.19,2.29-1.91,3.8-1.91h.05l1.57-.63c.52-.21,1.08-.32,1.64-.34.26-.04.67-.13,1-.21,1.25-.6,3.07-.62,6.31-.65.02,0,.03,0,.05,0,2.86-.66,5.63-1.11,7.14-1.07.2,0,1.71,0,3.59,0,9.16-.02,9.23-.01,9.65.04.62.08,1.09.23,1.58.38.58.18,1.38.44,2.48.61.14.02.27.05.41.08l1.93.48c.81.2,1.54.61,2.14,1.19.47.09.88.15,1.14.14,1.09-.11,2.14.17,3.04.78h0c3.17.27,4.56.69,5.39,1.16.65-.33,1.38-.5,2.12-.5h2.41c1.96,0,4.66,0,6.9,0,5.47.01,11.57,1.38,12.46,1.68.05.02.99.4,2.39,1.05.62.05,1.27.12,1.95.19.06,0,.12.01.19.02l3.38.48c.5.07.99.23,1.45.45l.6.3,4.7.17c.8.03,1.58.26,2.27.67l2.42,1.45c.14.09.28.18.41.28l.97.73c.47.36.88.8,1.19,1.31l2.66,4.35c.46.74.7,1.6.7,2.47v3.24l.86.6c1.16.8,1.9,2.07,2.02,3.48.15,1.68-.63,3.34-2.01,4.31-1.71,1.2-6.28,1.52-9.71.9-1.15.69-3.34,1.49-7.37,1.62-.19,2.46-2.25,4.37-4.72,4.37h-2.66c-.56,0-1.09-.1-1.58-.27-3.33-.21-6-.51-7.82-1.72l-2.01-.67c-.21-.07-.42-.16-.62-.26l-1.94-.97c-.46-.23-.87-.53-1.23-.89l-2.34-2.34c-1.03-.76-1.59-1.59-1.8-1.9,0-.01-.02-.03-.03-.04-.1-.15-.2-.3-.29-.45-1.38-.34-2.32-.58-3-.79h0s-1.93-.48-1.93-.48c-.37-.09-.72-.23-1.06-.4-1.32-.09-2.52-.18-3.34-.23-2.55-.18-2.8-.2-3.07-.23-.17-.02-.34-.06-.51-.1-.01,0-.03,0-.04-.01-.1.02-.2.04-.32.06h0c-1.98.18-21.12.15-24.99-.49h0c-.54-.08-2.72-.36-3.35-.39-.23,0-.48,0-.76-.02-1.79.15-3.97.31-6.56.4-.37.08-.71.11-1.1.1-1.55-.02-1.81-.02-4.31.75-1.44.45-2.91.58-4.32.71-1.01.09-1.96.18-2.86.37-.42.09-.55.12-3.78.12-1.6.44-5.47,1.52-8.58,2.4-1.34.65-2.64,1.25-3.79,1.75-1.67.81-6.92,2.79-14.39,4.99-.06.12-.12.23-.18.34l-1.69,2.9c-.4.69-.97,1.27-1.66,1.68l-1.92,1.15c-.83.72-2.12,1.58-4.24,2.84-.18.11-.38.22-.59.35-1.62,1.83-3.63,3.45-5.31,4.67-.17.81-.55,1.56-1.1,2.18-.01.04-.03.07-.04.11-.39.98-1.11,2.79-2.77,4.07-.18.23-.37.44-.54.63-1.17,1.4-2.83,2.75-4.31,3.91-.09.07-.17.13-.24.19-1.63,1.76-4.85,3.46-11.4,5.95-.97,2.04-2.15,4.01-3.49,5.32-1.26,1.91-3.77,4.81-5.44,6.07-.56.4-1.09.77-1.6,1.12-.16.74-.47,1.32-.85,2.03-.09.18-.2.37-.29.55l-.86,3c-.12.41-.29.79-.5,1.15l-.73,1.2c-.19.32-.42.61-.68.87l-.72.73c-.16.17-.34.32-.53.46l-.04.03c-.02.61-.05.76-.1,1.03,0,.04-.02.08-.03.12-.76,3.18-3.36,7.61-4.6,8.71-.46.42-1.28,1.09-2.21,1.85-.22.18-.41.34-.55.45-.82.84-1.87,1.49-3.22,2.28-.25.14-.48.28-.67.4-.34.32-.73.6-1.15.81l-.97.48c-.11.06-.23.11-.35.16.29.44.51.93.65,1.47.14.55.17,1.07.14,1.54v3.96c0,.31-.03.62-.09.93l-.97,4.83c-.04.19-.09.38-.15.57l-.63,1.89c-.18,1.04-.34,1.81-.45,2.38-.05.24-.09.43-.12.59.07,2.52-.68,5.76-1.44,8.64,0,.04-.02.07-.03.1-.06,1.43-.39,3.57-.96,6.94-.02.35-.08.7-.18,1.03-.09.52-.19,1.06-.29,1.63-.38,2.18-.91,5.14-.98,6.04.03.79-.14,1.57-.48,2.27-.02,1.08-.34,2.85-1.52,8.57-.26,1.27-.59,2.87-.78,3.86l.16.55c.13.44.2.9.2,1.36v.3c0,1.01,0,3.77-.02,6.29,0,.15,0,.31,0,.46v.03c.24.45.39.94.46,1.44l.55.73c.57.76.89,1.67.94,2.6.01.03.03.07.04.1.1.26.18.49.24.68h0s0,.02,0,.02c.01.05.03.09.04.14h0c.11.55.17,1.72.19,3.13.43,2.09.33,5.13-.02,10.35v1.29c0,.82-.22,1.63-.62,2.35l-1.93,3.38c-.2.36-.45.68-.74.98l-.72.73c-.37.37-.79.68-1.25.91l-.97.48c-.66.33-1.39.5-2.12.5ZM114.69,182.67h0s0,0,0,0ZM114.65,182.05s0,0,0,0c0,0,0,0,0,0ZM117.12,166.08c0,.07,0,.14,0,.21,0-.07,0-.14,0-.21ZM84.94,163.73s0,.04,0,.06c0-.02,0-.04,0-.06ZM118.56,157.79s0,0,0,0c0,0,0,0,0,0ZM123.56,137.41h0s0,0,0,0ZM123.56,137.4s0,0,0,0c0,0,0,0,0,0ZM91.71,137.16h0s0,0,0,0ZM126.96,135.44s0,0,0,0c0,0,0,0,0,0ZM127,135.4s-.02.03-.03.04c.01-.01.02-.03.03-.04ZM129.38,105.08l.02.02v-.02s-.01,0-.02,0ZM161.66,94.67s0,0,0,0c0,0,0,0,0,0ZM161.68,94.65s0,.01-.01.02c0,0,0-.01.01-.02ZM168,87.25s0,0,0,0c0,0,0,0,0,0ZM121.29,86.25s-.03.07-.04.1c.01-.03.03-.07.04-.1ZM123.66,83.74h0s0,0,0,0ZM236.61,58.66c-.1.01-.22.02-.34.02.14,0,.26-.01.34-.02ZM158.13,54.91s-.03.03-.05.05c.02-.02.03-.03.05-.05ZM218.76,37.99s0,0,0,0c0,0,0,0,0,0ZM225.35,36.19s-.06.09-.09.14h0s.02-.03.02-.04c.02-.03.04-.07.06-.1ZM227.22,34.82s0,0,0,0c0,0,0,0,0,0ZM227.21,34.82s0,0,0,0c0,0,0,0,0,0ZM227.2,34.82s0,0,0,0c0,0,0,0,0,0Z"/>
  <path class="st5" d="M212.88,393.38c-.92,0-1.86-.04-2.84-.13-1.05-.09-2.73-.25-4.07-.37l-1.29-.12c-1.05-.1-2.09-.25-3.12-.45l-2.42-.48c-1.21-.24-2.4-.56-3.57-.95l-.36-.12-2.75-.69c-2.94-.73-5.73-1.91-8.28-3.47-1.05-.34-2.08-.74-3.09-1.2l-1.7-.77c-4.48-1.2-8.65-3.45-12.14-6.6l-7.25-6.53c-1.01-.91-1.96-1.89-2.83-2.93l-.74-.59c-.83-.67-1.63-1.39-2.39-2.14l-1.12-1.12c-1.58-1.18-3.16-2.57-4.72-4.19-.95-.81-1.96-1.76-2.98-2.87-.98-.76-1.91-1.58-2.78-2.45l-1.93-1.93c-1.43-1.43-2.7-2.99-3.81-4.68l-4.88-5.71c-.98-.98-1.9-2.04-2.74-3.15l-1.67-2.22-1.31-1.55c-.51-.52-1-1.05-1.47-1.61l-4.72-5.56c-.61-.61-1.19-1.25-1.75-1.92l-2.42-2.9c-1.46-1.76-2.72-3.68-3.74-5.72l-1.42-2.84-.87-1.45c-.4-.66-.77-1.34-1.12-2.04l-.51-1.03c-1.28-1.61-2.4-3.36-3.32-5.2l-.48-.97c-.65-1.3-1.2-2.64-1.65-4.02-.83-1.18-1.57-2.43-2.22-3.72l-.48-.97c-.24-.48-.47-.97-.69-1.47-.62-1.09-1.18-2.23-1.66-3.4-1.08-1.82-1.97-3.75-2.64-5.77l-.81-2.39c-.55-1.1-1.03-2.23-1.44-3.38-.31-.67-.59-1.35-.84-2.04-1.34-2.08-2.42-4.33-3.21-6.68l-.36-1.07c-1.73-3.84-2.62-8-2.61-12.22v-.44c-1.43-2.34-2.54-4.88-3.28-7.55-.83-2.13-1.42-4.34-1.74-6.6-.28-1.53-.76-4.45-.78-7.92,0-.1,0-.19,0-.29.01-2.76.36-5.9.89-10.37.07-.57.13-1.07.17-1.45.27-3.48,1.15-6.86,2.58-9.99,1.32-3.48,4.16-10.79,10.24-16.58,2.24-2.69,4.93-4.95,7.94-6.69.72-.46,2.12-1.39,2.73-1.8.06-.04.11-.08.17-.12-.28-.93-.54-1.89-.77-2.88-1.6-5.19-1.64-10.05-1.67-14.43,0-.64-.01-1.3-.02-1.95-.06-3.3.58-11.72,2.38-17.34h0c.13-.43.44-1.46.78-2.6,1.55-5.22,2.02-6.79,2.88-8.78.51-1.17,1.09-2.31,1.74-3.41.31-.61,1.22-2.45,3.12-6.59.47-1.03,1-2.03,1.58-3,2.41-4,5.5-7.83,8.62-11.22.42-1.31.87-2.57,1.35-3.78,2.4-6.58,6.99-14,8.44-16.27h-.01c.97-1.5,3.92-6.04,13.45-13.27.51-.38,1.02-.75,1.55-1.1.13-.09,13.68-8.73,19.71-10.94h0c1.94-.69,5.13-1.74,9.77-3.26,2.07-.68,4.87-1.59,5.76-1.9.44-.17.89-.32,1.35-.47,3.31-1.06,6.73-1.71,11.47-2.62,1.88-.36,4.05-.78,6.54-1.28,3.25-.65,10.4-1.58,15.01-1.6.04,0,.09,0,.13,0,2.48,0,6.36,0,9.66,0,.74-.22,1.51-.45,2.31-.69l.48-.14c6.35-2.07,13.12-3.28,15.1-3.6.22-.04.45-.07.67-.1.17-.02,10.74-1.48,22.67-.12.88-.56,1.79-1.08,2.73-1.58,2.15-1.14,4.44-2,6.8-2.58,1.98-.48,11.99-2.91,15.02-3.39.07-.01.14-.02.21-.03.51-.08,1.03-.14,1.55-.2,4.19-1.85,8.76-2.71,13.34-2.51l10.63.48c1.97.09,3.93.38,5.84.85l1.93.48c3.29.82,6.42,2.21,9.24,4.09l2.9,1.93c1.62,1.08,3.13,2.32,4.51,3.7l2.18,2.18c2.25,2.25,4.12,4.84,5.54,7.68l.98,1.95c.08.17.17.34.25.5.93.69,1.82,1.43,2.67,2.22,4.45,4.1,7.48,8.76,9.07,13.92l2.55,1.28c2.85,1.42,5.46,3.3,7.71,5.56l2.65,2.65c.99.99,1.91,2.05,2.75,3.17l2.9,3.87c.33.44.65.89.95,1.35l1.93,2.89c.68,1.02,1.3,2.09,1.85,3.19l.48.97c1.06,2.12,1.86,4.35,2.38,6.64l.56,1.39c.5,1.24.91,2.52,1.24,3.82l.36,1.45.83,2.9c.09.32.18.64.26.96l1.93,7.75c.11.45.21.9.3,1.35l.48,2.42c.11.54.2,1.08.28,1.63l.49,3.39c.17.58.33,1.16.47,1.74l2.39,10.05.54,1.44c2.12,3.57,3.47,7.56,3.95,11.72.08.35.15.71.21,1.06.35,1.08.64,2.18.86,3.3l.48,2.42c.06.31.12.63.17.94l.48,2.9c.01.09.03.18.04.27,1.3,8.29,1.31,12.04,1.32,24.47v1.84c0,.05,0,.11,0,.16-.01,2.6-.25,5.02-.42,6.78-.03.3-.06.59-.08.85-.02.62-.06,1.24-.12,1.86,5.57,7.02,7.82,16.41,5.54,25.57l-1.45,5.83c-.26,1.03-.57,2.04-.93,3.03l-.34,1.53c-.53,2.36-1.34,4.66-2.42,6.82l-.06.13c-.49,1.62-1.11,3.19-1.87,4.71l-.41.83-.51,1.27c-.97,2.41-2.25,4.69-3.81,6.77l-1.45,1.93c-.51.68-1.05,1.33-1.61,1.96-.76,1.05-1.59,2.06-2.48,3.01l-1.59,1.68s-.04.06-.06.09c-.71,1.27-1.52,2.49-2.41,3.65-.14.24-.3.51-.44.77-1.07,2.81-2.59,5.49-4.54,7.94l-.62.78c-.26.5-.53,1-.81,1.49-.35,3.06-1.18,6.04-2.44,8.83-.88,2.53-2.11,4.93-3.65,7.14.81,4.44.6,9.05-.66,13.46-1.42,6.63-5.1,12.64-10.5,16.94l-.66.53-1.4,1.23c-.57.5-1.16.98-1.76,1.43l-1.56,1.17-4.47,3.58c-1.03.83-2.12,1.59-3.26,2.27l-.41.25-6.46,5.89c-1.13,1.03-2.33,1.97-3.61,2.81-.89.68-1.81,1.31-2.77,1.89l-.67.5c-1.28.96-2.63,1.81-4.04,2.55l-1.75,1.31c-.44.33-.88.64-1.34.95l-.38.25-2.27,1.86-3.65,3.11c-.81,1.25-1.71,2.44-2.7,3.56-.69,1.1-1.45,2.15-2.28,3.15l-2.42,2.91c-7.97,9.59-21.1,13.16-32.83,8.93-11.73-4.24-19.55-15.37-19.55-27.85v-.98c0-2.02.21-4.02.61-5.98-.32.41-.57.74-.73.94h0c-3.13,3.94-5.93,6.54-7.61,8.04-3.66,4.15-8.57,7.78-13.32,10.72-3.78,4.37-7.4,7.11-9.74,8.88-.41.31-.91.69-1.1.85-3.19,2.66-6.82,4.57-10.64,5.69-2.47.88-6.74,2.17-12,2.17ZM262.07,362.02c-.09.13-.18.27-.28.4.09-.13.18-.26.28-.4h0ZM83.48,252.06s0,.01,0,.02c0,0,0-.01,0-.02ZM80.36,238.86h0s0,0,0,0ZM80.36,238.83v.02-.02ZM80.85,224.83s0,.03,0,.04c0-.01,0-.03,0-.04ZM80.85,224.79s0,.02,0,.03c0,0,0-.02,0-.03ZM407.35,211.95c0,.16,0,.32,0,.49,0-.18,0-.34,0-.49ZM88.6,205.31s0,0-.01.01c0,0,0,0,.01-.01ZM88.63,205.28s-.02.02-.02.03c0,0,.02-.02.02-.03ZM109.77,136.69h0s0,0,0,0ZM110.73,135.12s-.01.02-.02.03c0-.01.01-.02.02-.03ZM355.02,70.34c.19.18.37.36.56.54-.11-.11-.3-.3-.56-.54ZM183.13,65.16c-.21.08-.38.15-.5.19.17-.07.33-.13.5-.19Z"/>
  <path class="st5" d="M247.85,461.07c-3.73,0-7.51-.71-11.13-2.18-8.11-3.29-14.08-9.86-16.81-17.68-.2-.45-.44-.97-.68-1.56l-3.55-3.55c-.41-.41-.79-.81-1.22-1.26-1.76-1.85-2.64-2.74-3.08-3.17-.48-.38-.94-.77-1.39-1.16-1.85-1.33-3.54-2.88-5.04-4.62l-1.08-1.24c-.88-.7-1.73-1.45-2.53-2.25l-5.68-5.68c-.42-.42-.83-.86-1.23-1.3-.89-.79-1.74-1.64-2.53-2.53-1.73-1.53-3.28-3.27-4.61-5.17l-2.73-2.72-5.41-4.85c-.1-.09-.2-.18-.3-.27-3.68-2.56-6.76-5.93-8.97-9.91l-.13-.24c-1.34-1.83-2.51-3.82-3.5-5.99-.11-.21-.21-.42-.31-.62-1.73-2.53-3.06-5.32-3.94-8.28-.08-.22-.16-.44-.24-.67-.33-.97-.62-1.95-.85-2.94-.44-.88-.8-1.72-1.11-2.47-.73-1.24-1.36-2.53-1.91-3.87-1.35-2.01-2.15-3.75-2.67-4.88-1.26-2.73-1.89-3.77-2.16-4.14-1.39-1.94-2.55-4.05-3.43-6.26l-3.79-9.47c-6.07-15.18,1.31-32.41,16.49-38.48,15.18-6.07,32.41,1.31,38.49,16.49l2.67,6.69c2,3.21,3.55,6.27,4.58,8.41,1.33,1.94,2.88,4.48,4.16,7.53.83,1.57,1.57,3.25,2.22,5.03.76,1.47,1.63,3.34,2.42,5.51.1-.34.2-.68.32-1.03.05-.16.11-.32.16-.48.65-1.87,1.28-3.15,2.01-4.63.22-.44.76-1.52,1.15-2.34.75-2.17,1.76-4.26,3.01-6.23,1.18-1.86,2.55-3.57,4.09-5.12.86-1.11,2.07-2.56,3.69-4.08l.57-.64c.86-1.13,2.19-2.79,4.19-4.57.12-.11.25-.22.37-.32.39-.33.76-.64,1.13-.93,3.62-3.76,8.17-6.51,13.18-7.95,4.14-1.49,7.99-1.88,11.28-1.75h.48c2.94.04,5.97.14,9.08.61,1.85.09,3.92.36,6.18.95.27.07.53.14.8.22,2.13.61,4.07,1.35,5.84,2.19,5.42-.37,10.58.38,14.51,1.81,2.36.86,4.58,2,6.61,3.39,7.57-5.54,17.56-7.33,26.93-4.18,13.53,4.55,21.9,18.1,19.88,32.24l-1.26,8.85c-.9,6.35-3.84,12.23-8.38,16.76l-.08.08c-1.36,1.74-2.69,3.16-3.71,4.25-2.61,2.78-4.01,4.1-4.78,4.79-1.68,1.9-3.62,3.59-5.77,5.02l-3.79,2.52c-1.29.86-2.64,1.61-4.04,2.25-.78.64-1.49,1.2-2.11,1.69-.61.74-1.26,1.46-1.94,2.14l-5.05,5.05c-.85.86-1.76,1.66-2.71,2.4-1.88,1.9-4.01,3.54-6.34,4.88-1.63,1.34-3.38,2.49-5.22,3.45-.39.44-.79.86-1.2,1.27l-1.1,1.1c-.37.52-.75,1.03-1.15,1.53l-2.53,3.16c-.94,1.18-1.98,2.28-3.09,3.3l-4.05,4.63c-.28.33-.58.64-.87.96-.3.42-.6.84-.92,1.24-.48.74-.99,1.46-1.53,2.16-.63,1.28-1.36,2.52-2.17,3.7-.23.49-.47.98-.72,1.46-.11.31-.21.62-.32.91-.83,2.8-2.08,5.48-3.72,7.94l-1.26,1.89c-5.63,8.46-14.99,13.21-24.66,13.21ZM272.66,444.12l-.07.07s.05-.05.07-.07ZM273.57,441.32c-.42.41-.74.71-1.03.98-.24.22-.48.43-.72.64.58-.5,1.17-1.03,1.75-1.61ZM211.45,431.72s.02.01.03.02c-.02-.01-.03-.02-.05-.04,0,0,.01.01.02.02ZM172.15,380.28s.02,0,.03.01c0,0-.02,0-.03-.01ZM172.13,380.27s0,0,.01,0c0,0,0,0-.01,0ZM162.18,373.6c.36.66.73,1.2,1.05,1.68-.11-.16-.21-.32-.32-.49-.26-.4-.5-.8-.73-1.2ZM159.23,366.76h0,0ZM160.13,364.55c0,.2,0,.4,0,.59,0-.2,0-.39,0-.59ZM160.13,364.54v.02-.02ZM160.13,364.52v.02-.02ZM160.89,363.72s0,.01,0,.02c0,0,0-.01,0-.02ZM160.9,363.68v.03s0-.02,0-.03ZM155.73,353.16h0s0,0,0,0ZM155.73,353.12s0,.02,0,.03c0-.01,0-.02,0-.03ZM218.95,349.25s0,0,0,0c0,0,0,0,0,0ZM218.97,349.22s0,.02-.01.02c0,0,0-.02.01-.02ZM218.99,349.18s-.01.02-.02.03c0,0,.01-.02.02-.03ZM219.01,349.15s-.01.02-.02.03c0-.01.01-.02.02-.03ZM213.36,343.83c.06.11.13.22.19.34-.06-.12-.13-.24-.2-.36,0,0,0,.01,0,.02ZM205.96,330.36s.06.08.09.12c-.03-.04-.06-.08-.09-.12ZM262.15,311.25c.15,0,.29.01.44.02h0c-.12,0-.27-.02-.44-.02Z"/>
  <path class="st1" d="M246.89,477.16c-1.67,0-3.35-.59-4.7-1.78-58.45-51.64-105.14-105.39-138.76-159.75-2.06-3.34-1.03-7.72,2.31-9.78,3.34-2.06,7.72-1.03,9.78,2.31,32.89,53.18,78.67,105.86,136.08,156.57,2.94,2.6,3.22,7.09.62,10.03-1.4,1.59-3.36,2.4-5.33,2.4Z"/>
  <path class="st1" d="M245.47,477.16c-1.97,0-3.92-.81-5.33-2.4-2.6-2.94-2.32-7.43.62-10.03,57.41-50.72,103.19-103.4,136.08-156.57,2.06-3.34,6.44-4.37,9.78-2.31,3.34,2.06,4.37,6.44,2.31,9.78-33.62,54.36-80.3,108.11-138.76,159.75-1.35,1.19-3.03,1.78-4.7,1.78Z"/>
  <path class="st1" d="M135.9,75.86c-2.01,0-4.01-.85-5.42-2.51-2.54-2.99-2.18-7.47.82-10.02,30.48-25.89,68.44-39.85,112.82-41.48,3.93-.15,7.22,2.92,7.36,6.84.14,3.92-2.92,7.22-6.84,7.36-41.12,1.51-76.15,14.33-104.14,38.11-1.34,1.14-2.97,1.69-4.6,1.69Z"/>
  <path class="st1" d="M356.46,75.86c-1.63,0-3.26-.55-4.6-1.69-27.99-23.77-63.03-36.59-104.14-38.11-3.92-.14-6.98-3.44-6.84-7.36.14-3.92,3.44-6.98,7.36-6.84,44.38,1.63,82.34,15.59,112.82,41.48,2.99,2.54,3.36,7.02.82,10.02-1.41,1.65-3.41,2.51-5.42,2.51Z"/>
  <path class="st1" d="M112.22,323.62c-2.4,0-4.74-1.21-6.08-3.41-21.75-35.71-32.78-81.26-32.78-135.39,0-3.92,3.18-7.11,7.11-7.11s7.11,3.18,7.11,7.11c0,51.49,10.33,94.55,30.7,128,2.04,3.35.98,7.72-2.37,9.76-1.15.7-2.43,1.04-3.69,1.04Z"/>
  <path class="st1" d="M380.14,323.62c-1.26,0-2.54-.33-3.69-1.04-3.35-2.04-4.41-6.41-2.37-9.76,20.37-33.45,30.7-76.51,30.7-128,0-3.92,3.18-7.11,7.11-7.11s7.11,3.18,7.11,7.11c0,54.13-11.03,99.68-32.78,135.39-1.34,2.2-3.68,3.41-6.08,3.41Z"/>
  <path class="st1" d="M80.01,205.19c-.08,0-.15,0-.23,0-3.92-.12-7-3.4-6.88-7.32,1.96-62.65,26.37-111.53,72.55-145.26,3.17-2.31,7.62-1.62,9.93,1.55,2.31,3.17,1.62,7.61-1.55,9.93-21.23,15.51-37.6,34.61-48.64,56.76-11.09,22.26-17.18,48.32-18.09,77.47-.12,3.85-3.28,6.88-7.1,6.88Z"/>
  <path class="st1" d="M412.36,205.19c-3.82,0-6.98-3.04-7.1-6.88-.91-29.14-7-55.21-18.09-77.47-11.04-22.15-27.4-41.25-48.64-56.76-3.17-2.31-3.86-6.76-1.55-9.93,2.32-3.17,6.76-3.86,9.93-1.55,46.18,33.74,70.59,82.61,72.55,145.26.12,3.92-2.96,7.2-6.88,7.32-.08,0-.15,0-.23,0Z"/>
  <path class="st9" d="M246.45,479.29c-.44,0-.89-.16-1.25-.47-52.28-46.06-89.63-85.04-111.01-115.86-.6-.86-.38-2.04.48-2.64.86-.6,2.04-.38,2.64.48,21.2,30.57,58.35,69.32,110.4,115.18.78.69.86,1.89.17,2.67-.37.42-.9.64-1.42.64Z"/>
  <path class="st9" d="M245.91,479.29c-.53,0-1.05-.22-1.42-.64-.69-.79-.62-1.98.17-2.67,52.05-45.86,89.2-84.61,110.4-115.18.6-.86,1.78-1.07,2.64-.48.86.6,1.07,1.78.48,2.64-21.38,30.82-58.73,69.8-111.01,115.86-.36.32-.81.47-1.25.47Z"/>
  <path class="st9" d="M135.73,363.32c-.55,0-1.1-.24-1.48-.71-30.63-37.97-49.82-76.79-57.02-115.4-.19-1.03.49-2.02,1.52-2.21,1.03-.19,2.02.49,2.21,1.52,7.08,37.98,26.01,76.24,56.24,113.71.66.81.53,2.01-.28,2.66-.35.28-.77.42-1.19.42Z"/>
  <path class="st9" d="M356.64,363.32c-.42,0-.84-.14-1.19-.42-.81-.66-.94-1.85-.28-2.66,30.23-37.47,49.16-75.73,56.24-113.71.19-1.03,1.18-1.71,2.21-1.52,1.03.19,1.71,1.18,1.52,2.21-7.2,38.6-26.38,77.43-57.02,115.4-.37.46-.92.71-1.48.71Z"/>
  <path class="st9" d="M79.1,248.12c-.86,0-1.63-.59-1.84-1.46-5.63-23.65-6.8-50.31-3.49-79.25.12-1.04,1.06-1.79,2.1-1.67,1.04.12,1.79,1.06,1.67,2.1-3.26,28.5-2.12,54.73,3.41,77.94.24,1.02-.39,2.04-1.4,2.28-.15.04-.3.05-.44.05Z"/>
  <path class="st9" d="M413.27,248.12c-.15,0-.29-.02-.44-.05-1.02-.24-1.65-1.26-1.4-2.28,5.52-23.21,6.67-49.44,3.41-77.95-.12-1.04.63-1.98,1.67-2.1,1.03-.12,1.98.63,2.1,1.67,3.31,28.94,2.13,55.61-3.49,79.25-.21.87-.98,1.46-1.84,1.46Z"/>
  <path class="st9" d="M75.62,169.9c-.08,0-.17,0-.26-.02-1.04-.14-1.76-1.09-1.62-2.13,4.99-37.05,23.15-71.72,53.96-103.07.73-.75,1.93-.76,2.68-.02.75.73.76,1.93.02,2.68-30.23,30.74-48.03,64.7-52.91,100.92-.13.95-.94,1.64-1.88,1.64Z"/>
  <path class="st9" d="M416.75,169.9c-.93,0-1.75-.69-1.88-1.64-4.88-36.22-22.68-70.17-52.92-100.92-.73-.75-.72-1.95.02-2.68.75-.74,1.95-.72,2.68.02,30.82,31.34,48.98,66.02,53.97,103.07.14,1.04-.59,1.99-1.63,2.13-.09.01-.17.02-.26.02Z"/>
  <path class="st9" d="M129.53,67.79c-.53,0-1.06-.22-1.43-.65-.69-.79-.6-1.99.19-2.67,33.92-29.41,73.4-44.15,117.35-43.74,1.05,0,1.89.87,1.88,1.91,0,1.04-.86,1.88-1.89,1.88h-.02c-42.98-.4-81.63,14.03-114.83,42.82-.36.31-.8.46-1.24.46Z"/>
  <path class="st9" d="M362.84,67.79c-.44,0-.88-.15-1.24-.46-33.21-28.79-71.82-43.21-114.83-42.82h-.02c-1.04,0-1.89-.84-1.89-1.88,0-1.05.83-1.9,1.88-1.91,43.98-.39,83.42,14.33,117.35,43.74.79.69.88,1.88.19,2.67-.37.43-.9.65-1.43.65Z"/>
  <path class="st9" d="M126.04,89.86c-.43,0-.86-.14-1.21-.44-.8-.67-.91-1.86-.24-2.67,26.78-32.13,67.51-50.25,121.05-53.86,1.05-.06,1.95.72,2.02,1.76s-.72,1.95-1.76,2.02c-52.47,3.53-92.3,21.2-118.39,52.5-.37.45-.91.68-1.46.68Z"/>
  <path class="st9" d="M366.32,89.86c-.54,0-1.08-.23-1.46-.68-26.08-31.3-65.92-48.97-118.39-52.5-1.04-.07-1.83-.97-1.76-2.02s.97-1.83,2.02-1.76c53.55,3.61,94.27,21.73,121.05,53.86.67.8.56,2-.24,2.67-.35.3-.78.44-1.21.44Z"/>
  <path class="st9" d="M246.3,462.33c-.46,0-.93-.17-1.3-.51-87.37-81.96-137.95-148.85-150.32-198.8-.25-1.01.37-2.04,1.38-2.29,1.02-.25,2.04.37,2.3,1.38,12.2,49.23,62.41,115.49,149.24,196.94.76.72.8,1.92.09,2.68-.37.4-.88.6-1.38.6Z"/>
  <path class="st9" d="M246.07,462.33c-.51,0-1.01-.2-1.38-.6-.72-.76-.68-1.96.09-2.68,86.83-81.45,137.04-147.72,149.24-196.95.25-1.02,1.28-1.63,2.3-1.38,1.02.25,1.63,1.28,1.38,2.3-12.38,49.95-62.96,116.83-150.32,198.8-.37.34-.83.51-1.3.51Z"/>
  <path class="st9" d="M98.1,271.83c-.81,0-1.56-.53-1.81-1.35-8.87-29.21-11.84-63.84-8.81-102.94.08-1.04.99-1.82,2.04-1.74,1.04.08,1.82.99,1.74,2.04-2.99,38.63-.07,72.79,8.66,101.55.3,1-.26,2.06-1.26,2.36-.18.06-.37.08-.55.08Z"/>
  <path class="st9" d="M394.27,271.83c-.18,0-.37-.03-.55-.08-1-.3-1.57-1.36-1.26-2.36,8.73-28.76,11.65-62.92,8.66-101.55-.08-1.04.7-1.95,1.74-2.04,1.05-.08,1.96.7,2.04,1.74,3.02,39.1.06,73.74-8.81,102.94-.25.82-1,1.35-1.81,1.35Z"/>
  <path class="st9" d="M88.07,188.1h-.01c-1.05,0-1.89-.86-1.88-1.91.22-37.33,14.69-72.62,43.03-104.89.69-.79,1.89-.86,2.67-.17.79.69.86,1.89.17,2.67-27.72,31.56-41.88,66.01-42.09,102.41,0,1.04-.85,1.88-1.89,1.88Z"/>
  <path class="st9" d="M404.3,188.1c-1.04,0-1.89-.84-1.89-1.88-.22-36.4-14.38-70.85-42.1-102.41-.69-.79-.61-1.98.17-2.67.79-.69,1.98-.61,2.67.17,28.34,32.26,42.82,67.55,43.04,104.89,0,1.05-.84,1.9-1.88,1.91h-.01Z"/>
  <path class="st6" d="M248.12,312.97h-27.56c-1.11,0-2.22-.08-3.31-.23l-3.01-.43c-.21-.03-.41-.06-.62-.1l-2.59-.44c-1.2-.2-2.38-.5-3.54-.88l-1.49-.5-1.38-.15c-2.36-.26-4.67-.87-6.84-1.82-.04,0-.08-.02-.12-.03l-1.72-.43c-1.07-.26-2.12-.6-3.14-1.01l-2.21-.85c-.68-.23-1.34-.49-2-.78l-3.87-1.72c-.09-.04-.17-.08-.26-.12-2.03-.7-3.95-1.66-5.71-2.87l-2.84-1.22c-2.09-.9-4.05-2.09-5.8-3.55l-2.17-1.81-1.28-.97c-.15-.11-.29-.22-.44-.34l-2.16-1.72c-.27-.21-.53-.43-.78-.65l-6-5.2-1.45-1.13c-1.34-1.04-2.56-2.23-3.65-3.54l-2.15-2.59c-.25-.29-.48-.59-.71-.9l-1.3-1.72c-.12-.16-.24-.32-.35-.48l-2.15-3.01c-1.46-2.04-2.55-4.24-3.28-6.51l-3.04-2.27c-.94-.7-1.83-1.47-2.65-2.31l-.85-.86c-9.2-9.3-9.13-24.29.17-33.5,9.16-9.06,23.84-9.13,33.07-.25l.04.03,1.24.57,1.36.45c.06.02.11.04.17.06l.62.19.66.13,9.84,1.13,9.94.83c.92.08,1.84.21,2.75.39l.97.2,3.12.31c.2.02.41.04.61.07l6.89.86c.56.07,1.11.16,1.67.27l.85.17,3.44.29,7.62.38h34.82c3.37-.43,6.35-.64,8.62-.8.54-.04,1.21-.08,1.69-.12,1.86-.38,3.38-.39,12.65-.37l5.62-.93,4.56-.83c.28-.05.57-.1.85-.14l1.86-.27.59-.15c.89-.22,1.79-.39,2.69-.5l3.26-.41,3.84-.55c.89-.26,1.79-.47,2.71-.62l2.59-.44c.2-.03.41-.07.61-.09l2.39-.34c.91-.3,1.85-.54,2.79-.73l.43-.09c2.13-1.07,4.41-1.81,6.77-2.2.4-.15.79-.3,1.2-.43l1.21-.45c1.5-.74,3.07-1.32,4.69-1.73l1.37-.38c.54-.18,1.09-.34,1.64-.48l1.72-.44c6.51-1.64,13.4-.45,18.97,3.28,5.57,3.73,9.31,9.65,10.27,16.29l.22,1.51c1.01,6.96-1.13,13.98-5.79,19.19l-.56.83c-.77,1.15-1.63,2.22-2.59,3.22l-1.6,2.13c-.7.93-1.46,1.81-2.29,2.63l-.25.25-3.95,4.52c-.88,1.01-1.85,1.95-2.9,2.8l-3.44,2.8c-.23.18-.46.36-.69.54l-1.72,1.3c-.22.17-.45.33-.68.49l-4.31,3.01c-.97.68-1.98,1.28-3.04,1.8l-1.3.79c-.57.35-1.16.67-1.76.96l-1,.5-2.5,1.42c-.19.11-.38.21-.57.31l-.13.08c-.79.53-1.62,1.01-2.47,1.45l-3.62,2.32-2.45,1.96-.81.81c-.8.8-1.67,1.55-2.58,2.23l-1.72,1.29c-.33.24-.66.48-.99.7l-2.58,1.73c-.86.57-1.75,1.09-2.67,1.54l-3.32,1.66c-.92.46-1.86.86-2.82,1.2l-.99.5c-1.59.8-3.27,1.43-5,1.85l-.87.22c-1.47.67-3.49,1.42-5.98,1.85h0c-2.13.37-3.92.38-5.51.35l-11.5.79c-.08,0-.16.01-.24.02l-14.65.86c-.46.03-.93.04-1.39.04ZM277.03,311.18s-.1,0-.14.01h-.01s.1,0,.15-.01Z"/>
  <path class="st3" d="M337.24,250.74c-4.81,0-9.54-.16-14.43-.32-4.81-.16-9.78-.32-15-.33h-1.55c-2.96,0-4.91,0-6.61-.07-2.05-.09-3.94-.37-5.66-.77l-12.44-1.46c-.5-.06-.99-.13-1.49-.22l-2.51-.46h-.1c-1.83,0-3.36-.07-5.21-.42-5.47-1-10.31-1.33-22.02-1.78-.29-.01-.58-.03-.88-.05l-5.36-.41-14.64-.81c-4.85-.02-17.36-.23-26.38-.44-2.59-.02-5.05-.24-6.7-.39-.22-.02-.42-.04-.59-.05-.41-.01-.94-.03-1.6-.07-2.01-.1-6.73-.34-15.32-.35h-1.26c-12.04,0-12.11.02-15.78.59-.42.07-.85.12-1.28.16l-4.3.43c-.92.09-1.84.13-2.75.11l-12.28-.22c-6.62-.12-12.89-3-17.29-7.96-4.4-4.95-6.52-11.52-5.85-18.11l.44-4.3c.24-2.38.84-4.72,1.79-6.92l.64-1.51c2.19-5.13,6.12-9.31,11.1-11.83l.86-.44c.06-.03.12-.06.18-.09l.86-.43c1.5-.74,3.07-1.32,4.7-1.73l1.72-.44s.08-.02.12-.03l3.03-.8c.56-.19,1.13-.35,1.71-.49l1.72-.43c.33-.08.65-.15.98-.22l6.5-1.31c.84-.17,1.68-.29,2.53-.37l4.74-.43c.18-.02.35-.03.53-.04l6.46-.44c.07,0,.14,0,.22-.01l5.11-.3c.48-.11.97-.21,1.46-.29l2.58-.43c.16-.03.32-.05.48-.07l3.02-.44c.31-.05.63-.08.94-.12.03,0,.06-.02.09-.03,1.2-.35,2.43-.61,3.68-.77l3.45-.44c.21-.03.42-.05.63-.07l4.3-.43c.47-.05.94-.08,1.41-.1l11.14-.43,19.76-.86c.13,0,.26-.01.4-.01l15.94-.43c.21,0,.42,0,.63,0h11.81c12.17,0,30.44,0,32.27,0,1.22-.02,2.47.04,5.7.2,3.47.17,8.7.42,15.86.67l24.77.42c1,.02,2,.1,2.99.24l2.48.36,3.78.37c.8.08,1.59.2,2.37.36l2.15.44c1.14.23,2.26.55,3.36.94l4.74,1.71c1.8.65,3.52,1.52,5.12,2.59l1.29.86c.12.08.23.16.35.24,9.82,3.59,16.41,13.41,15.45,24.32l-.21,2.37c-.61,6.93-4.2,13.05-9.55,17-2.59,9.62-11.11,16.93-21.6,17.49-3.32.18-6.54.25-9.71.25ZM197.31,242.76s-.01,0-.02,0c0,0,.01,0,.02,0Z"/>
  <path class="st4" d="M135.1,208.56c-1.88,0-3.79-.23-5.7-.7-12.41-3.07-20.09-15.39-17.51-27.81.63-8.35,5.65-15.81,13.26-19.51l8.39-4.08c.82-.4,1.67-.75,2.54-1.06l.26-.13c1.02-.51,2.07-.94,3.14-1.3l1.57-.52.78-.33c1.6-1.03,3.31-1.87,5.12-2.49,1.31-.6,2.67-1.08,4.07-1.44l1.72-.44s.08-.02.11-.03l1.11-.31c.98-.33,1.97-.6,2.98-.8l1.55-.31,1.13-.29c.4-.1.8-.19,1.2-.27l.66-.13c.56-.18,1.13-.35,1.7-.49l1.72-.43c.36-.09.72-.17,1.08-.24l.87-.17c.86-.33,1.75-.61,2.64-.84l1.45-.41c1.1-.36,2.23-.64,3.37-.84.91-.3,1.84-.55,2.78-.74l3.79-.76,1.13-.28s.07-.02.1-.03l3.44-.85c1.87-.46,3.78-.7,5.7-.7h30.58c.12,0,.24,0,.37,0l27.56.43,36.09.43c.06,0,.12,0,.18,0l44.78.86c.57.01,1.14.04,1.71.1l4.74.44c.56.05,1.13.12,1.68.22l2.59.43c.76.12,1.51.29,2.25.49l6.46,1.72c2.94.79,5.7,2.13,8.12,3.95l1.53.76c.68.34,1.34.71,1.98,1.11l3.45,2.16c.55.35,1.09.71,1.61,1.1l1.72,1.29c1.97,1.47,3.7,3.25,5.13,5.25l1.1,1.5c9.25,9.25,9.24,24.25-.01,33.5-9.25,9.25-24.25,9.24-33.5-.01l-1.29-1.29c-.78-.78-1.5-1.61-2.17-2.5l-.23-.25-3.29-1.64c-.17-.09-.35-.18-.52-.27l-1.2-.32-.61-.1-3.04-.28-43.84-.84-36.08-.43-27.46-.42h-27.51l-2.25.57c-.4.1-.8.19-1.2.27l-1.78.35c-1.32.47-2.67.83-4.05,1.06l-.85.14c-.25.08-.5.15-.76.22-.97.39-1.97.71-2.98.97l-1.72.44c-.4.1-.8.19-1.2.27l-1.86.38-.38.13c-.96.32-1.94.58-2.94.78l-1.55.31-1.13.29c-.4.1-.79.19-1.19.27l-.64.13c-.57.19-1.14.35-1.72.49l-.24.06c-1.37.79-2.81,1.45-4.32,1.96l-.43.14-2.18.93c-.56.24-1.12.45-1.7.65l-1.3.47c-.65.32-1.32.62-1.99.88-4.44,5.7-11.33,9.16-18.69,9.16Z"/>
  <path class="st4" d="M144.58,185.29c-8.03,0-15.87-4.09-20.32-11.47-6.75-11.21-3.13-25.76,8.08-32.51l1.07-.64c.65-.39,1.31-.75,1.99-1.07,3.9-2.63,8.51-4.05,13.24-4.05,26.62,0,82.01,0,102-.42.17,0,.33,0,.5,0h95.39c13.08,0,23.69,10.6,23.69,23.69s-10.6,23.69-23.69,23.69h-95.14c-19.19.4-68.21.42-96.5.43-3.3,1.6-6.82,2.37-10.31,2.37Z"/>
  <path class="st0" d="M358.37,155.58c-1.61,0-3.22-.33-4.74-.99-1.79.26-3.63.12-5.39-.46l-4.12-.31c-.25-.02-.5-.05-.75-.08-.78-.1-2.55-.28-3.28-.32-2.66.1-5.12-.33-7.51-.75-1.23-.21-2.49-.43-3.89-.61l-9.66-.84c-.1,0-.2-.02-.3-.03l-3.23-.35h-6.19q-29.31.02-30.41-.16c-.19-.03-.39-.07-.58-.11-.93-.2-1.07-.22-3.74-.48l-1.5-.14-8.24-.42-25.54-.85h-.24q-12.02.03-13.16-.16l-.1-.02c-.78-.11-3.61-.32-12.2-.62-1.04-.04-1.69-.06-2.2-.1h0c-1.52-.12-3.47-.35-5.73-.62-1.83-.22-3.71-.44-5.43-.62l-25.1.42-3.68.36-3.3.41c-.15.02-.29.03-.44.05l-14.85,1.28-2.18.3c-.61.21-1.23.36-1.87.47l-2.37.39-1.94.39c-.2.04-.41.08-.61.11-.61.33-1.25.61-1.92.83l-.78.26-1.01.44c-6,2.6-12.97-.15-15.58-6.15-2.6-6,.15-12.97,6.15-15.58l1.25-.54c1.03-.78,2.19-1.38,3.42-1.79l1.3-.43c.07-.02.14-.05.21-.07-.09-.28-.18-.56-.25-.85-1.51-5.97,1.81-12.04,7.51-14.06,1.29-.86,2.73-1.46,4.26-1.76l1.85-.37,1.43-.36c.32-.08.65-.15.98-.2l.95-.16c.88-.35,1.79-.6,2.73-.73l3.02-.44c.13-.02.26-.04.4-.05l12.1-1.29c.29-.03.58-.05.87-.06l13.79-.44c.12,0,.25,0,.37,0h.46c9.01,0,11.29,0,11.97,0,.71-.04,2.75-.24,4.12-.37,3.49-.34,5.03-.48,6.2-.49h.11c45.86,0,73.63.15,82.61.44l21.62.87c.31.01.62.04.93.07l10.76,1.29c.32.04.63.09.94.15l2.02.41,4.61.83c.56.1,1.11.24,1.64.42l1.72.57,1.68.28c1.14.19,2.25.55,3.28,1.06l.86.43s.09.05.14.07l.04.02.43.14c.56.19,1.11.41,1.64.68l5.12,2.56c.95.48,1.83,1.08,2.62,1.79.79.48,1.52,1.06,2.18,1.72l3.45,3.45c.29.29.56.59.82.91.72.59,1.37,1.26,1.94,2l2.8,3.66c.24.32.47.65.68.99.38.42.73.87,1.04,1.34l.25.36c.89.89,1.63,1.91,2.19,3.03l.44.86s.03.06.05.09l.43.86c.46.92.79,1.9.99,2.9l.22,1.08c.9,4.45-.82,9.02-4.43,11.77-2.1,1.6-4.63,2.42-7.18,2.42ZM280.86,139h0,0ZM199.5,106.91c.13,0,.17,0,.22,0-.06,0-.12,0-.22,0Z"/>
  <path class="st10" d="M336.84,121.56c-2.2,0-4.39-.61-6.3-1.81-.66.08-1.34.11-2.02.07l-9.05-.44c-.46-.02-.91-.07-1.36-.14l-5.04-.83-14.57-2.15c-.19-.03-.38-.06-.57-.1l-1.5-.3-3.99-.34h-1.47c-5.93.03-6.03.03-7.33-.24l-.1-.02c-.46-.09-1.87-.37-4.5-.68-.09-.01-.17-.02-.26-.03l-2.14-.3-40.04.41-5.13.4-4.67.42c-.21.02-.42.03-.63.04l-11.93.43-7.19.42c-.13,0-.25.01-.38.02l-32.82.85-4.82.41c-.25.02-.51.03-.76.04h-.3c-.24,0-.25,0-.3.02-1.69.46-6.92.95-8.84.82-6.53-.45-11.45-6.1-11.01-12.62.43-6.31,5.73-11.14,11.97-11.04.24-.01.6-.04.99-.08.42-3.58,2.46-6.87,5.69-8.8l1.08-.64c.24-.14.48-.28.73-.4l.86-.44s.06-.03.09-.05h.01c.78-.69,1.64-1.26,2.56-1.72l.74-.37.84-.63c.33-.25.68-.48,1.03-.7l2.15-1.29c.24-.15.49-.28.75-.41l.86-.44s.06-.03.1-.05l.18-.09.67-.44c.4-.27.82-.51,1.26-.73l.85-.43c.1-.05.21-.1.31-.15,1.03-.78,2.19-1.39,3.42-1.8l2.51-.84c.31-.11.63-.2.95-.28l.45-.11c.85-.4,1.75-.69,2.68-.87l4.01-.8,3.19-.79c.24-.06.49-.11.73-.16l5.97-1.11.61-.2c.38-.12.76-.23,1.15-.32l3.87-.86c.2-.05.41-.09.62-.12l7.58-1.27,1.99-.39c.33-.07.66-.12,1-.15l2.39-.26,2.04-.77c.81-.31,1.66-.52,2.52-.65l3.01-.43c.55-.08,1.1-.12,1.66-.12,4.74,0,15.8.12,25.57.4,5.59.16,10.08.34,13.35.55,2.98.19,6.33.41,9.28,1.55h.04s1.43.3,1.43.3c.2.04.4.08.6.14l.3.07h.25c1.83,0,3.64.43,5.28,1.24l1.01.5c1.03.06,2.05.25,3.03.58l1.29.43c.54.18,1.07.4,1.57.65l.98.49.51.17c.52.18,1.03.39,1.53.63l.95.47,1.78.59c.56.18,1.1.41,1.62.67l.86.44c.56.28,1.1.61,1.6.98l.25.08c1,.33,1.96.8,2.84,1.39l.82.52.86.43c.46.23.91.49,1.34.77l2.55,1.7c.2.13.4.27.59.42l3.38,2.54c.11.08.21.16.32.24l1.74,1.39.63.42,1.98,1.15.82.4c.92.46,1.78,1.03,2.55,1.71l.13.07c.43.22.84.46,1.24.72l2.58,1.72c.17.11.34.23.5.36l.86.64c.42.21.83.45,1.22.71l.87.55.82.41c.45.22.88.47,1.3.75l.95.59.8.4c.74.37,1.45.82,2.1,1.34l2.16,1.72c.79.63,1.49,1.36,2.1,2.17l1.29,1.72c3.72,4.97,2.96,11.98-1.74,16.04-2.23,1.93-4.99,2.89-7.75,2.89ZM159.94,94.86c.17,0,.33.01.5.02-.13,0-.29-.02-.5-.02Z"/>
  <path class="st1" d="M243.34,326.61c-1.82,0-3.5-.04-4.95-.14-7.75-.53-22.8-3.11-30.42-5.2-6.93-1.93-21.94-8.47-28.54-12.13-7.75-4.33-18.48-12.11-24.99-18.11-5.56-5.16-16.43-17.39-20.39-23.33-4.35-6.57-11.46-20.07-14.37-27.26-3.03-7.6-6.68-22.3-7.8-29.9-1.09-7.57-1.73-22.07-.92-30.83.74-7.88,3.89-23.73,6.02-30.31,2.15-6.57,8.94-21.25,12.99-28.06,4.53-7.61,13.59-18.96,18.89-24.39,5.37-5.48,16.97-15.23,23.9-19.6,6.56-4.11,20.26-10.86,27.68-13.64,6.76-2.51,22.76-6.02,30.25-6.92,3.91-.46,12.26-1.03,15.42-1.04h.05c6.92.02,22.99,1.93,30.71,3.65,8.67,1.96,22.28,7.05,29.08,10.39,6.88,3.4,19.76,11.4,26.07,16.64,5.94,4.94,16.61,15.86,21.55,22.06,4.45,5.59,12.75,19.7,15.95,26.55,3.73,8.07,7.82,20.67,9.55,29.32,1.46,7.42,3.05,23.7,2.76,30.84-.36,7.92-2.56,23.01-4.44,30.49-2.03,7.97-7.74,21.99-11.3,28.76-3.56,6.73-11.57,18.84-17.4,25.47-5.28,5.96-17.16,16.94-22.73,20.99-5.59,4.04-19.72,11.93-27.02,15.08-8.14,3.49-22.16,7.36-29.66,8.65-6.23,1.06-17.56,1.98-25.93,1.98ZM246.13,69.97c-2.43.01-10.2.51-13.76.94-7.08.85-21.7,4.17-26.97,6.13-6.59,2.47-19.26,8.71-25.08,12.36-5.85,3.69-16.61,12.71-21.3,17.5-4.73,4.84-12.94,15.16-16.84,21.72-3.51,5.92-9.85,19.58-11.69,25.2-1.82,5.61-4.74,20.39-5.38,27.23-.7,7.54-.14,20.72.83,27.46.98,6.63,4.37,20.24,6.93,26.65,2.58,6.38,9.16,18.86,13.03,24.7,3.08,4.63,12.95,15.89,18.2,20.76,5.69,5.24,15.47,12.33,22.25,16.12,6.23,3.46,20.01,9.35,25.41,10.85,6.78,1.86,20.71,4.25,27.58,4.72,6.89.45,20.91-.54,27.54-1.67,6.69-1.15,19.42-4.69,26.43-7.69,6.34-2.74,19.52-10.08,24.29-13.53,4.75-3.46,15.83-13.7,20.42-18.89,5.01-5.7,12.31-16.69,15.48-22.69,3.42-6.5,8.52-19.43,10.1-25.62,1.67-6.63,3.7-20.59,4.02-27.62.23-5.55-1.12-20.45-2.5-27.46-1.51-7.56-5.24-19.03-8.5-26.1-3.01-6.47-10.69-19.31-14.16-23.67-4.4-5.51-14.26-15.6-19.53-19.99-4.91-4.07-16.65-11.55-23.27-14.81-6.07-2.98-18.46-7.59-25.92-9.28-6.7-1.49-21.66-3.28-27.62-3.3Z"/>
  <path class="st9" d="M247.46,328.74c-7.32,0-22.42-1.37-28.52-2.6-6.1-1.25-20.7-5.94-27.41-8.79-7.53-3.23-18.22-9.27-24.89-14.05-5.9-4.26-17.44-14.34-21.67-18.92-4.18-4.57-13.24-16.92-17-23.19-4.2-7.05-9.3-18.21-11.85-25.96-2.27-6.92-5.67-21.84-6.38-28.01-.69-6.18-.74-21.48-.09-28.72.75-8.14,3.2-20.16,5.71-27.96,2.25-6.95,8.29-21.02,11.34-26.4,0,0,0,0,0,0,3.05-5.37,12.03-17.77,16.85-23.29,5.42-6.16,14.48-14.44,21.08-19.27,5.89-4.29,19.06-12.12,24.73-14.71,5.66-2.57,20.23-7.34,27.36-8.96,8.01-1.81,20.22-3.2,28.41-3.23h.08c7.36,0,22.55,1.38,28.59,2.6,6.09,1.24,20.7,5.93,27.41,8.79,7.53,3.22,18.23,9.26,24.89,14.05,5.93,4.28,17.47,14.36,21.67,18.92,4.19,4.57,13.24,16.92,16.99,23.18,4.19,7.03,9.29,18.19,11.86,25.97,2.28,6.98,5.68,21.9,6.37,28.01.69,6.18.74,21.49.09,28.73-.75,8.17-3.2,20.19-5.7,27.95-2.26,6.96-8.3,21.03-11.34,26.4-3.08,5.41-12.06,17.81-16.85,23.29-5.41,6.15-14.48,14.44-21.09,19.27-5.91,4.3-19.08,12.13-24.73,14.71-5.67,2.56-20.24,7.34-27.35,8.96-8.03,1.81-20.24,3.19-28.41,3.22h-.15ZM129.18,125.54c-2.92,5.16-8.95,19.18-11.11,25.87-2.45,7.63-4.85,19.39-5.58,27.35-.63,6.96-.58,22.22.08,28.14.68,5.91,4.08,20.79,6.26,27.45,2.5,7.58,7.48,18.49,11.59,25.39,3.69,6.15,12.56,18.26,16.65,22.72,4.05,4.39,15.56,14.44,21.23,18.54,6.52,4.68,16.98,10.59,24.34,13.74,6.59,2.8,20.9,7.4,26.86,8.62,5.84,1.17,20.92,2.54,27.96,2.54h.14c7.99-.03,19.94-1.38,27.79-3.15,6.84-1.56,21.37-6.32,26.8-8.78,5.52-2.52,18.44-10.2,24.23-14.42,6.47-4.73,15.34-12.83,20.63-18.85,4.61-5.27,13.57-17.64,16.52-22.82,2.91-5.15,8.93-19.18,11.11-25.88,2.44-7.59,4.84-19.35,5.57-27.34.63-6.96.58-22.23-.08-28.15-.68-5.97-4.01-20.59-6.25-27.44-2.51-7.6-7.5-18.52-11.6-25.4-3.61-6.02-12.63-18.33-16.64-22.71-4.11-4.46-15.42-14.34-21.23-18.54-6.51-4.68-16.98-10.59-24.34-13.75-6.59-2.81-20.9-7.41-26.86-8.62-5.91-1.2-20.8-2.55-28.02-2.55h-.08c-8.01.03-19.96,1.39-27.79,3.16-6.86,1.56-21.39,6.31-26.81,8.78-5.43,2.48-18.57,10.29-24.23,14.42-6.46,4.72-15.33,12.82-20.62,18.84-4.73,5.41-13.53,17.57-16.52,22.82h0Z"/>
  <path class="st9" d="M244.26,313.41c-.57,0-1.08,0-1.54-.03-7.21-.31-21.08-2.27-28.01-3.97-7.13-1.79-20.21-7.01-26.28-10.15-6.15-3.2-17.23-10.4-23.28-15.63-5.34-4.63-15.61-15.55-19.27-20.49-3.62-4.93-11-17.93-13.85-24.41-3.18-7.28-6.74-19.91-7.94-26.7-1.16-6.69-2.19-20.59-1.73-27.83.47-7,2.82-20.67,4.74-27.6,1.58-5.63,7.48-19.33,11.06-25.73,3.87-6.85,11.12-16.75,16.49-22.53,4.62-4.92,15.98-14.92,21.27-18.41,6.03-3.95,18.43-10.42,25.04-13.07,6.8-2.69,20.48-6.06,27.29-7.06,6.9-.99,20.15-1.6,28.14-.88,7.1.65,21.89,3.53,27.77,5.39,5.85,1.87,19.55,8.09,25.71,11.69,6.95,4.08,17.33,12.23,22.3,16.99,4.94,4.76,14.05,15.41,17.96,21.51,3.79,5.95,10.01,18.37,12.57,25.07,2.07,5.47,5.45,19.98,6.35,27.25.42,3.52.96,11.18.97,13.9h0c0,6.09-1.76,20.9-3.3,27.8-1.78,7.8-6.41,20.07-9.45,26.21-3.05,6.12-10.49,17.98-15.15,23.53-4.54,5.38-14.57,15.07-20.24,19.57-4.63,3.64-17.55,11.3-24.25,14.38-7.21,3.3-18.95,7.09-26.73,8.64-6.69,1.31-19.96,2.56-26.62,2.56ZM248.05,71.45c-6.88,0-14.72.48-19.42,1.16-6.65.98-20.02,4.27-26.64,6.89-6.35,2.54-18.73,9-24.53,12.8-4.75,3.13-15.81,12.71-20.76,17.97-5.25,5.64-12.32,15.29-16.09,21.98-3.51,6.25-9.26,19.62-10.8,25.1-1.84,6.66-4.19,20.3-4.64,27.03-.45,7.05.56,20.62,1.7,27.16,1.17,6.61,4.73,19.16,7.75,26.05,2.79,6.34,10,19.06,13.53,23.87,3.58,4.83,13.62,15.5,18.85,20.03,5.73,4.95,16.73,12.14,22.73,15.26,5.94,3.07,18.71,8.18,25.66,9.92,6.66,1.63,20.51,3.6,27.45,3.89,5.73.24,20.39-1.09,27.49-2.49,7.6-1.51,19.06-5.22,26.1-8.43,6.56-3.01,19.17-10.49,23.67-14.03,5.45-4.32,15.46-13.99,19.82-19.16,4.54-5.41,11.8-16.99,14.78-22.97,2.97-5.99,7.55-18.2,9.23-25.57,1.51-6.75,3.23-21.23,3.23-27.17,0-2.59-.54-10.19-.95-13.56-.88-7.1-4.18-21.27-6.19-26.58-2.46-6.45-8.67-18.84-12.31-24.55-3.8-5.94-12.7-16.34-17.53-20.99-4.84-4.65-15.18-12.73-21.76-16.59-6.04-3.52-19.43-9.61-25.14-11.43-5.74-1.82-20.21-4.63-27.16-5.27-2.28-.2-5.08-.3-8.06-.3Z"/>
  <path class="st5" d="M249,314.94c-.31,0-.63-.01-.94-.04l-6.17-.49c-5.75-.46-10.27-4.98-10.84-10.6-.03-.12-.05-.24-.08-.36-.81-4.06.56-8.05,3.3-10.76l-.42-6.73c0-.08,0-.15-.01-.23l-.23-5.38-.42-3.18c-.02-.16-.04-.32-.05-.49l-.44-4.69-.18-1.11c-.03-.18-.06-.37-.08-.55l-.49-4.19c-.04-.33-.06-.65-.07-.98-.16-4.7-.16-9.34-.01-13.77v-.11c.01-1.48.15-2.87.28-4.22.11-1.16.22-2.25.22-3.19-.03-2.76.41-7.47.55-8.87.03-.33.08-.65.14-.98.03-.59.05-1.66.05-2.51v-.03c0-.29.01-.57.03-.85l.73-10.84.72-22.2-.71-12.92c-.36-6.53,4.64-12.12,11.17-12.48,6.52-.37,12.12,4.64,12.48,11.17l.74,13.43c.02.34.02.69.01,1.03l-.74,22.93c0,.14-.01.28-.02.41l-.73,10.78c0,.67-.01,1.33-.03,1.97-.04,1.41-.1,2.74-.33,4.05-.2,2.15-.39,4.79-.38,5.64,0,.07,0,.13,0,.2,0,2.09-.18,3.99-.33,5.51-.08.8-.16,1.7-.16,2.12,0,.27,0,.52-.02.78-.13,3.75-.13,7.67,0,11.66l.4,3.42.2,1.21c.04.25.08.51.1.76l.25,2.46s0,.07.01.1l.29,2.94c.93,1.19,1.63,2.58,2.05,4.1.43.89.74,1.83.93,2.79l.25,1.23c.08.38.13.77.17,1.15l.25,2.46c.03.31.05.62.06.93l.37,15.28c.11,3.37-1.22,6.62-3.66,8.95-2.21,2.11-5.14,3.27-8.17,3.27ZM233.8,231.49h0Z"/>
  <path class="st5" d="M229.81,190.03c-.78,0-1.57-.08-2.34-.23l-1.18-.24c-.69-.14-1.37-.34-2.03-.6l-1.19-.47c-.61-.24-1.2-.53-1.76-.87l-1.18-.71c-1.02-.62-1.94-1.38-2.73-2.28l-1.55-1.74-1.46-1.47c-.65-.66-1.22-1.4-1.71-2.19l-.71-1.18s-.05-.09-.08-.13c-.47-.55-.88-1.14-1.24-1.77l-.95-1.65c-.33-.58-.62-1.19-.85-1.82-.75-1.15-1.29-2.42-1.6-3.75l-.03-.07-.46-.77c-.61-1.01-1.07-2.11-1.36-3.26l-1.14-4.55-.89-3.13c-.12-.43-.22-.87-.29-1.31l-.4-2.38-.6-2.38c-.08-.31-.14-.61-.19-.93l-.47-2.84c-.11-.67-.17-1.34-.16-2.02l.24-39.37c0-6.54,5.3-11.84,11.84-11.84s11.84,5.3,11.84,11.84v1.77l-.23,36.73.35,1.86.47,1.89c.08.31.14.61.19.93l.36,2.18.76,2.67c.04.13.07.25.1.38l.76,3.03c.08.15.16.3.24.45l.4.79c1.57-1.42,3.52-2.43,5.66-2.85,2.78-4.2,8.06-6.31,13.15-4.85,6.29,1.81,9.92,8.37,8.11,14.65l-.19.67c-1.68,6.4-5.9,10.03-9.16,11.96-.36.79-.8,1.53-1.32,2.23l-.71.95c-.73.98-1.61,1.83-2.6,2.54l-.02.02-.25.25c-.17.17-.35.33-.53.49l-2.14,1.89c-.77.68-1.63,1.26-2.55,1.72l-.95.47c-1.65.83-3.47,1.25-5.3,1.25Z"/>
  <path class="st5" d="M245.55,174.87c-5.74,0-10.79-4.19-11.69-10.04l-.24-1.53c-.08-.55-.13-1.1-.14-1.66l-.24-18.72c0-.15,0-.3,0-.45l.71-27.95c0-.08,0-.16,0-.24l.22-4.94v-6.81l-.23-.69c-2.05-6.21,1.32-12.91,7.53-14.96,6.21-2.05,12.91,1.32,14.96,7.53l.35,1.06c.05.16.1.32.15.48l.47,1.67c.3,1.05.45,2.14.45,3.24v8.75c0,.18,0,.36-.01.54l-.23,5.09-.7,27.61.22,17.66.11.71c1,6.46-3.43,12.51-9.9,13.51-.61.09-1.22.14-1.82.14Z"/>
  <path class="st5" d="M250.29,194.05c-2.58,0-5.18-.84-7.36-2.57-4.53-3.6-5.73-9.85-3.12-14.79-.44-.83-.78-1.72-1-2.63l-.24-.95c-.08-.31-.14-.61-.19-.93l-.24-1.42c-.11-.64-.16-1.29-.16-1.95v-1.53c0-6.54,5.3-11.84,11.84-11.84,4.67,0,8.71,2.71,10.64,6.64.3,0,.61.03.91.06l1.07.11c4.19.45,7.83,3.08,9.55,6.93.86,1.92,1.18,4,.98,6.03.39,3.88-1.16,7.77-4.24,10.32l-2.02,1.67c-.41.34-.85.65-1.3.93l-.95.59c-1.74,1.08-3.7,1.67-5.7,1.77-2.29,2.35-5.37,3.57-8.48,3.57Z"/>
  <path class="st5" d="M248.87,198.91c-2.47,0-4.97-.77-7.1-2.37-5.23-3.92-6.29-11.35-2.37-16.58l.89-1.18c.38-.93.88-1.8,1.48-2.6l.51-.68,3.13-4.7c.44-.66.95-1.28,1.52-1.85l1.31-1.3c.67-.67,1.42-1.25,2.22-1.73.29-.27.59-.52.91-.76l.27-.21,1.3-1.3c.46-.46.97-.89,1.5-1.27l.45-.32,3.91-3.33c.16-.16.32-.31.48-.46v-.07c.15-.69.36-1.37.62-2.03l.47-1.19c.1-.24.2-.48.31-.72.12-.42.26-.83.42-1.23l.47-1.18c.09-.22.19-.44.29-.66.13-.47.29-.93.48-1.37.16-.84.41-1.66.74-2.44l.35-.84c.13-.53.3-1.05.51-1.56l.05-.13.2-1.18c.11-.63.26-1.25.46-1.85l.1-.7.21-11.53-.14-1.23-.93-6.98c-.04-.32-.07-.64-.09-.96l-.71-13.86c-.33-6.53,4.69-12.1,11.22-12.43,6.49-.35,12.1,4.69,12.43,11.22l.69,13.38.88,6.63c.01.08.02.17.03.25l.24,2.12c.06.51.08,1.02.07,1.53l-.24,13.04c0,.49-.05.98-.12,1.47l-.12.91c0,1.57-.31,3.12-.92,4.57,0,.04-.01.07-.02.11l-.24,1.19c-.14.73-.36,1.44-.63,2.12l-.21.57c-.15.61-.35,1.2-.59,1.77l-.16.39c-.18,1.09-.51,2.15-.99,3.14-.2.72-.47,1.43-.81,2.1l-.29.65c-.21.84-.51,1.65-.9,2.42l-.17.36-.23,1.16c-.21,1.04-.55,2.04-1.02,2.99l-.95,1.89c-.32.64-.69,1.24-1.12,1.81l-.71.95c-.54.72-1.16,1.38-1.85,1.96l-1.44,1.26c-.26.27-.54.52-.82.76l-4.39,3.68c-.24.2-.48.39-.73.57l-.02.02-1.2,1.2c-.4.4-.82.76-1.27,1.1l-.27.21-.35.35c-.54.54-1.13,1.03-1.76,1.45l-2.12,3.18c-.39.98-.9,1.9-1.54,2.75l-2.13,2.84c-2.33,3.1-5.88,4.74-9.48,4.74Z"/>
  <path class="st5" d="M243.14,194.53c-.2,0-.4,0-.61-.02l-4.62-.24c-2.94-.15-5.71-1.39-7.78-3.47l-2.3-2.31c-4.62-4.63-4.6-12.13.03-16.75,4.18-4.17,10.7-4.56,15.32-1.19,5.69-.62,11.15,2.98,12.69,8.69,1.71,6.31-2.03,12.82-8.34,14.52l-1.3.35c-1.01.27-2.05.41-3.09.41Z"/>
  <path class="st5" d="M253.51,195c-3.97,0-7.85-2-10.09-5.62l-.47-.77c-1-1.62-1.59-3.45-1.73-5.35l-.11-1.54c-.48-6.52,4.42-12.2,10.94-12.68,6.24-.45,11.68,3.98,12.58,10.06,1.9,5.17-.03,11.14-4.9,14.14-1.94,1.2-4.09,1.77-6.21,1.77Z"/>
  <path class="st5" d="M269,185.23c-2.36,0-4.74-.7-6.81-2.16-1.05-.74-1.95-1.62-2.67-2.6-1.3-1.24-2.33-2.79-2.97-4.6-2.19-6.16,1.04-12.93,7.2-15.12l1.01-.36c.4-.14.82-.27,1.23-.36l1.24-.29c4.07-.96,8.36.29,11.26,3.31,2.9,3.02,4,7.34,2.88,11.38l-.36,1.3c-.36,1.31-.95,2.55-1.73,3.66l-.59.83c-2.31,3.27-5.97,5.02-9.69,5.02Z"/>
  <path class="st5" d="M250.63,191.48c-2.62,0-6.16-.55-12.2-1.64-.27-.05-.55-.11-.82-.18l-.36-.09c-4.52-1.15-7.52-1.94-9.27-2.44-.94-.2-1.77-.48-2.52-.82l-1.64-.64c-1.15-.45-2.22-1.07-3.18-1.84l-.64-.52-.86-.6c-.38-.27-.74-.56-1.09-.86l-1.05-.94-2.11-1.78c-.55-.47-1.06-.98-1.52-1.54l-.78-.95c-.18-.21-.34-.43-.5-.66l-1.18-1.66c-.35-.49-.66-1.01-.93-1.55l-.24-.49-.68-1.11c-.29-.47-.55-.97-.77-1.48l-.72-1.66c-.05-.11-.09-.21-.13-.32l-.47-1.18c-.38-.95-.64-1.95-.76-2.97l-.47-3.9c-.67-5.49,2.56-10.72,7.77-12.58,5.21-1.86,11.02.14,13.98,4.81l1.72,2.72c.08.13.17.27.24.4l.33.57,1.91,2.72s.06.09.09.14l.1.15,1.14,1.2,2.38,1.56c.38.25.75.52,1.1.81.97.55,3.09,1.52,4.28,1.99,2.56.4,3.35.34,5.21-.02l1.02-.36,1.44-.73c.83-.59,1.66-1.07,2.49-1.55.88-.51,2.69-1.56,3.27-2.22,2.94-5.73,9.94-8.07,15.74-5.23,5.88,2.87,8.31,9.97,5.43,15.84-3.28,6.7-9.3,10.2-12.54,12.08,0,0,0,0,0,0-.81,3.87-3.54,7.24-7.53,8.7-1.47.54-2.85.8-4.68.8ZM263.46,181.23s0,0,0,0c0,0,0,0,0,0ZM237.81,163.42s0,0,0,0c0,0,0,0,0,0ZM254.11,159.48s0,0,0,0c0,0,0,0,0,0Z"/>
  <path class="st5" d="M270.85,172.97c-1.83,0-3.61-.62-5.04-1.77l-1.25-1c-1.87-1.5-2.97-3.75-3.01-6.15l-.11-6.99c0-.36.01-.72.05-1.07l.24-2.01c.05-.39.12-.77.22-1.14l.35-1.31c.07-.26.15-.52.25-.77l.26-.69.28-.92c.06-.2.13-.4.21-.6l.53-1.35c.06-.16.13-.32.2-.47l.23-.59c.18-.76.47-1.66.88-2.95.39-1.22,1.3-4.06,1.46-4.9-.02.12-.03.23-.04.33h0c.21-1.8,2.19-10.67,2.21-10.75.08-.4.48-3.09.48-6.75,0-5.56-1.87-16.4-2.18-17.99-.9-4.13,1.56-8.3,5.69-9.46,3.05-.86,6.19.16,8.18,2.37,2.3,1.42,3.83,3.96,3.83,6.86v1.9l.28,1.99c0,.06.02.12.02.18l.07.63.5,2.37c.12.52.18,1.05.19,1.59l.23,11.05.33,3.23c0,.06.01.11.01.17l.1,1.27.2,1.67,1.62,9.63c.05.28.08.57.1.86l.04.65c.71,2.45.7,5.63.06,10.43v.11c-.04.21-.07.43-.11.64l-.23,1.18c-.03.17-.07.34-.11.51l-.16.63-.17.98c-.03.15-.06.3-.09.45l-.47,2.02c-.09.39-.21.78-.36,1.15l-.34.84-.49,1.65c-.11.36-.24.71-.39,1.05l-.6,1.31c-.12.26-.25.51-.4.76l-1.47,2.45c-.1.17-.21.33-.32.49l-.59.82c-.38.54-.83,1.03-1.33,1.46l-.77.65c-.31.26-.64.5-.98.71l-2.19,1.35c-1.12.68-2.39,1.08-3.7,1.16l-1.89.11c-.16,0-.32.01-.48.01Z"/>
  <path class="st5" d="M241.9,164.56c-.89,0-1.79-.15-2.68-.46-4.12-1.46-6.32-5.92-4.99-10.05l-1.08-14.07c-.01-.16-.02-.32-.03-.47l-.23-8.29c-.02-.61.04-1.22.16-1.82.06-.7.15-1.72.43-2.83.25-1.12,1-6.77,1.32-9.19.47-3.56.5-3.77.7-4.47.02-.05.03-.11.05-.16.03-.09.07-.23.1-.31,1.53-4.44,2.15-8.29,2.03-9.46-.05-.17-.09-.33-.12-.5l-.23-1.06c-.06-.28-.11-.57-.14-.86l-.12-1.18c-.03-.28-.04-.55-.04-.83v-.65c0-4.45,3.61-8.05,8.05-8.05s8.05,3.61,8.05,8.05l.04.57.08.38c1.44,5.33-.31,12.7-2.16,18.21-.08.55-.19,1.42-.33,2.45-.81,6.06-1.26,9.28-1.63,10.81-.03.18-.04.37-.05.52-.02.23-.04.49-.07.77l.2,7.21.1,1.18,1.08,14.3c.07.88-.01,1.77-.24,2.63l-.25.95c-.06.22-.12.44-.2.66l-.23.64c-1.17,3.31-4.28,5.37-7.59,5.37ZM249.12,130.42s0,.01,0,.02c0,0,0-.01,0-.02ZM234.46,126.23s0,0,0,0c0,0,0,0,0,0ZM234.46,126.22s0,0,0,0c0,0,0,0,0,0ZM234.47,126.21s0,0,0,0c0,0,0,0,0,0ZM237.75,103.16s0,0,0,0c0,0,0,0,0,0ZM237.68,102.91h0Z"/>
  <path class="st5" d="M217.37,147.21c-4.17,0-7.7-3.22-8.02-7.44-.16-2.07-.39-6.6-.46-8.09-.36-2.37-.43-5.83-.53-12.71-.06-4.07-.14-9.13-.33-14.77-.15-4.44,3.33-8.17,7.77-8.32,4.44-.14,8.17,3.33,8.32,7.77.2,5.79.28,10.94.34,15.08.07,4.6.14,9.36.36,10.58.07.37.11.74.13,1.11,0,.06.29,5.9.46,8.13.34,4.44-2.99,8.3-7.42,8.64-.21.02-.41.02-.62.02Z"/>
  <path class="st1" d="M234.35,317.29h0c-2.62,0-4.73-2.12-4.73-4.74,0-.15.07-38.61.22-117.58,0-2.61,2.12-4.73,4.74-4.73h0c2.62,0,4.73,2.13,4.73,4.75-.14,78.05-.22,117.24-.22,117.56,0,2.61-2.12,4.73-4.74,4.73Z"/>
  <path class="st1" d="M257.17,317.29c-2.61,0-4.73-2.12-4.74-4.73,0-.32-.07-39.51-.22-117.56,0-2.62,2.11-4.74,4.73-4.75h0c2.61,0,4.73,2.12,4.74,4.73.15,79.27.22,117.43.22,117.58,0,2.62-2.12,4.74-4.73,4.74h0Z"/>
  <path class="st1" d="M234.63,198.8c-.41,0-.83-.05-1.24-.17-30.94-8.39-41.01-41.59-29.94-98.66.5-2.57,2.99-4.24,5.55-3.75,2.57.5,4.25,2.98,3.75,5.55-5.12,26.37-5.58,47.21-1.39,61.95,3.97,13.94,11.99,22.37,24.51,25.77,2.52.68,4.02,3.29,3.33,5.81-.57,2.11-2.48,3.5-4.57,3.5Z"/>
  <path class="st1" d="M256.88,198.8c-2.09,0-4-1.39-4.57-3.5-.68-2.52.81-5.13,3.33-5.81,12.52-3.4,20.54-11.82,24.5-25.77,4.19-14.74,3.73-35.58-1.39-61.95-.5-2.57,1.18-5.05,3.75-5.55,2.56-.49,5.05,1.18,5.55,3.75,11.07,57.08,1,90.27-29.94,98.66-.42.11-.83.17-1.24.17Z"/>
  <path class="st1" d="M223.96,104.97c-1.55,0-3.06-.76-3.97-2.15-2.05-3.15-3.54-4-4.1-4-.52.03-1.99.78-4.04,3.77-1.48,2.16-4.43,2.71-6.59,1.23-2.16-1.48-2.71-4.43-1.23-6.59,3.62-5.28,7.65-7.93,11.96-7.89,4.35.05,8.36,2.84,11.93,8.3,1.43,2.19.81,5.13-1.38,6.56-.8.52-1.7.77-2.58.77Z"/>
  <path class="st1" d="M267.56,104.97c-.89,0-1.79-.25-2.58-.77-2.19-1.43-2.81-4.36-1.38-6.56,3.56-5.46,7.57-8.25,11.93-8.3.04,0,.08,0,.12,0,4.28,0,8.26,2.65,11.85,7.89,1.48,2.16.93,5.11-1.23,6.59-2.16,1.48-5.11.93-6.58-1.23-2.04-2.98-3.49-3.77-4.03-3.77h0c-.56,0-2.04.86-4.1,4-.91,1.39-2.43,2.15-3.97,2.15Z"/>
  <path class="st1" d="M232.37,164.01c-.25,0-.49-.02-.75-.06-11.86-1.87-13.66-26.88-12.73-63.84.07-2.62,2.27-4.65,4.86-4.62,2.62.07,4.68,2.24,4.62,4.86-1.19,46.95,4.02,53.49,4.96,54.29,2.46.51,4.11,2.87,3.72,5.38-.37,2.33-2.38,4-4.67,4ZM233.41,154.7h0,0Z"/>
  <path class="st1" d="M259.14,164.01c-2.29,0-4.3-1.66-4.67-4-.4-2.51,1.25-4.87,3.71-5.38.94-.81,6.09-7.41,4.65-54.26-.08-2.62,1.97-4.8,4.59-4.88,2.66-.08,4.8,1.97,4.88,4.59,1.58,51.13-3.82,62.51-12.41,63.87-.25.04-.5.06-.75.06Z"/>
  <path class="st1" d="M234.15,164.17c-1.21,0-2.42-.46-3.35-1.39-1.79-1.79-1.85-4.67-.16-6.53.92-1.61,3.61-10.6,2.66-59.98-.05-2.62,2.03-4.78,4.64-4.83,2.63-.05,4.78,2.03,4.83,4.64,1.08,55.6-2.16,63.58-5.27,66.69-.92.93-2.14,1.39-3.35,1.39ZM230.8,156.09s0,0,0,0c0,0,0,0,0,0Z"/>
  <path class="st1" d="M257.37,164.17c-1.21,0-2.42-.46-3.35-1.38-3.12-3.12-6.36-11.1-5.27-66.7.05-2.62,2.25-4.69,4.83-4.64,2.62.05,4.69,2.21,4.64,4.83-.97,49.37,1.73,58.36,2.66,59.97,1.69,1.86,1.64,4.73-.15,6.53-.93.93-2.14,1.39-3.35,1.39ZM260.92,156.32h0,0ZM260.72,156.08s0,0,0,0c0,0,0,0,0,0Z"/>
  <path class="st1" d="M238.04,100.28c-.26,0-.53-.02-.8-.07-2.58-.44-4.31-2.89-3.88-5.46.69-4.08,2.5-6.98,5.36-8.64,3.14-1.81,7.16-1.82,11.96-.03,2.45.91,3.7,3.64,2.79,6.09-.91,2.45-3.64,3.7-6.09,2.79-2.51-.93-3.68-.78-3.92-.64-.12.07-.51.59-.76,2.02-.39,2.31-2.4,3.94-4.66,3.94Z"/>
  <path class="st1" d="M253.48,100.28c-2.27,0-4.27-1.63-4.66-3.94-.24-1.43-.64-1.95-.76-2.02-.24-.14-1.42-.29-3.92.64-2.45.91-5.18-.33-6.09-2.79-.91-2.45.33-5.18,2.79-6.09,4.8-1.79,8.82-1.78,11.96.03,2.87,1.65,4.67,4.56,5.36,8.64.44,2.58-1.3,5.03-3.87,5.47-.27.05-.54.07-.8.07Z"/>
  <path class="st9" d="M230.76,312.93c-.78,0-1.42-.63-1.42-1.41l-.49-114.05c0-.78.63-1.42,1.42-1.43h0c.78,0,1.42.63,1.42,1.42l.49,114.05c0,.79-.63,1.42-1.42,1.43h0Z"/>
  <path class="st9" d="M260.76,312.93h0c-.78,0-1.42-.64-1.41-1.43l.49-114.05c0-.78.64-1.42,1.42-1.42h0c.78,0,1.42.64,1.41,1.43l-.49,114.05c0,.78-.64,1.41-1.42,1.41Z"/>
  <path class="st9" d="M236.09,191.25c-.1,0-.2-.01-.3-.03-19.25-4.11-29.12-22.4-29.35-54.37,0-.79.63-1.43,1.41-1.43h.01c.78,0,1.42.63,1.42,1.41.21,30.46,9.33,47.82,27.1,51.61.77.16,1.26.92,1.09,1.69-.14.67-.73,1.13-1.39,1.13Z"/>
  <path class="st9" d="M255.43,191.25c-.66,0-1.25-.46-1.39-1.13-.16-.77.33-1.52,1.09-1.69,17.77-3.79,26.88-21.15,27.1-51.61,0-.78.64-1.41,1.42-1.41h.01c.78,0,1.42.65,1.41,1.43-.23,31.97-10.1,50.26-29.35,54.37-.1.02-.2.03-.3.03Z"/>
  <path class="st9" d="M207.87,138.1s-.06,0-.09,0c-.78-.05-1.38-.73-1.32-1.51,2.21-33.7,3.57-34.07,5.01-34.46.76-.21,1.54.24,1.74,1,.16.57-.06,1.16-.51,1.5-.5,1.03-1.72,6.33-3.41,32.14-.05.75-.67,1.33-1.42,1.33Z"/>
  <path class="st9" d="M283.65,138.1c-.74,0-1.37-.58-1.42-1.33-1.69-25.81-2.91-31.11-3.41-32.14-.44-.34-.66-.93-.51-1.5.21-.76.99-1.21,1.74-1,1.44.39,2.8.76,5.01,34.46.05.78-.54,1.46-1.33,1.51-.03,0-.06,0-.09,0Z"/>
  <path class="st9" d="M219.75,106.57c-.64,0-1.22-.43-1.38-1.08-1.22-4.94-2.39-5.15-2.4-5.15,0,0-1.03-.09-3.06,3.53-.38.68-1.25.93-1.93.54-.68-.38-.93-1.25-.54-1.93,1.29-2.3,3.31-5.31,5.92-4.95,2.11.29,3.63,2.6,4.78,7.29.19.76-.28,1.53-1.04,1.72-.11.03-.23.04-.34.04Z"/>
  <path class="st9" d="M271.77,106.57c-.11,0-.23-.01-.34-.04-.76-.19-1.23-.96-1.04-1.72,1.15-4.69,2.67-7,4.78-7.29,2.62-.35,4.63,2.66,5.92,4.95.38.68.14,1.55-.54,1.93-.68.38-1.55.14-1.94-.54-2.03-3.62-3.06-3.54-3.06-3.53-.01,0-1.19.22-2.4,5.15-.16.65-.74,1.08-1.38,1.08Z"/>
  <path class="st9" d="M228.33,164.17c-.27,0-.54-.08-.78-.24-2.57-1.7-10.4-6.87-9.22-58,.02-.78.69-1.41,1.45-1.39.78.02,1.41.67,1.39,1.45-.94,40.96,3.8,52.82,7.95,55.56.66.43.84,1.31.4,1.97-.27.41-.73.64-1.19.64Z"/>
  <path class="st9" d="M263.19,164.17c-.46,0-.91-.22-1.19-.64-.43-.66-.25-1.54.4-1.97,4.15-2.74,8.89-14.6,7.95-55.56-.02-.79.6-1.44,1.39-1.45.81-.02,1.44.6,1.45,1.39,1.17,51.13-6.65,56.3-9.22,58-.24.16-.51.24-.78.24Z"/>
  <path class="st9" d="M233.03,164.96c-1.66,0-3.49-.47-5.47-1.42-.71-.34-1.01-1.19-.67-1.9s1.19-1.01,1.9-.67c2.9,1.39,5.15,1.51,6.89.38,2.69-1.75,5.8-7.65,5.26-25.79-.02-.78.59-1.44,1.38-1.46.79-.02,1.44.59,1.46,1.38.46,15.84-1.68,25.09-6.56,28.26-1.25.82-2.66,1.22-4.2,1.22Z"/>
  <path class="st9" d="M258.49,164.96c-1.54,0-2.95-.41-4.2-1.22-4.88-3.17-7.02-12.42-6.56-28.26.02-.78.7-1.39,1.46-1.38.78.02,1.4.68,1.38,1.46-.53,18.14,2.57,24.04,5.26,25.79,1.74,1.13,4,1.01,6.89-.38.71-.34,1.56-.04,1.9.67.34.71.04,1.56-.67,1.9-1.98.95-3.81,1.42-5.47,1.42Z"/>
  <path class="st9" d="M242.24,136.91c-.78,0-1.42-.63-1.42-1.42l-.16-39.63c0-.79.63-1.42,1.42-1.43h0c.78,0,1.42.63,1.42,1.42l.16,39.63c0,.78-.63,1.42-1.42,1.43h0Z"/>
  <path class="st9" d="M249.28,136.91h0c-.79,0-1.42-.64-1.42-1.43l.16-39.63c0-.78.64-1.42,1.42-1.42h0c.79,0,1.42.64,1.42,1.43l-.16,39.63c0,.78-.64,1.42-1.42,1.42Z"/>
  <path class="st9" d="M242.2,97.25c-.53,0-1.03-.3-1.26-.82-.53-1.23-.13-2.1.16-2.51.82-1.18,2.6-1.6,5.92-1.41.78.04,1.38.72,1.34,1.5-.05.78-.69,1.38-1.5,1.34-1.97-.11-2.87.05-3.24.17.13.65-.19,1.35-.82,1.62-.19.08-.39.12-.59.12Z"/>
  <path class="st9" d="M249.28,97.28c-.19,0-.37-.04-.56-.11-.66-.28-.99-.99-.82-1.66-.38-.12-1.28-.28-3.23-.17-.79.04-1.46-.55-1.5-1.34-.04-.78.55-1.46,1.34-1.5,3.32-.19,5.08.23,5.91,1.41.29.41.69,1.28.17,2.51-.23.54-.76.86-1.31.86Z"/>
  <path class="st9" d="M231.88,153.9c-.16,0-.33-.03-.5-.09-.74-.27-1.11-1.09-.84-1.83.92-2.47,2.13-14.98,2.66-60.51,0-.78.64-1.45,1.44-1.4.78,0,1.41.65,1.4,1.44-.44,37.4-1.36,57.5-2.84,61.47-.21.57-.76.93-1.33.93Z"/>
  <path class="st9" d="M259.63,153.9c-.58,0-1.12-.35-1.33-.93-1.47-3.96-2.4-24.07-2.84-61.46,0-.79.62-1.43,1.4-1.44h.02c.78,0,1.41.63,1.42,1.4.53,45.53,1.74,58.03,2.66,60.51.27.74-.1,1.55-.84,1.83-.16.06-.33.09-.49.09Z"/>
  <path class="st9" d="M234.63,92.92c-.07,0-.14,0-.22-.02-.78-.12-1.31-.84-1.19-1.62.89-5.82,6.09-8.34,15.45-7.51.78.07,1.36.76,1.29,1.54-.07.78-.77,1.35-1.54,1.29-11.46-1.02-12.16,3.59-12.39,5.11-.11.7-.71,1.21-1.4,1.21Z"/>
  <path class="st9" d="M256.88,92.92c-.69,0-1.3-.5-1.4-1.21-.23-1.52-.93-6.13-12.39-5.11-.77.07-1.47-.51-1.54-1.29-.07-.78.51-1.47,1.29-1.54,9.36-.83,14.56,1.69,15.45,7.51.12.78-.41,1.5-1.19,1.62-.07.01-.15.02-.22.02Z"/>
  <path class="st9" d="M230.42,198.39c-.17,0-.34-.03-.5-.09-18.26-6.87-28.69-23-31.01-47.96-.07-.78.5-1.47,1.28-1.55.78-.07,1.47.5,1.55,1.28,2.2,23.78,12.02,39.11,29.18,45.56.73.28,1.11,1.1.83,1.83-.21.57-.76.92-1.33.92Z"/>
  <path class="st9" d="M261.09,198.39c-.57,0-1.12-.35-1.33-.92-.28-.73.1-1.55.83-1.83,17.16-6.45,26.97-21.78,29.18-45.56.07-.78.76-1.36,1.55-1.28.78.07,1.36.76,1.28,1.55-2.31,24.96-12.74,41.09-31.01,47.96-.17.06-.33.09-.5.09Z"/>
  <path class="st9" d="M200.14,151.03c-.77,0-1.41-.62-1.42-1.4-.32-18.98,1.12-36.26,4.28-51.36.16-.77.91-1.26,1.68-1.1.77.16,1.26.91,1.1,1.68-3.12,14.9-4.54,31.97-4.22,50.73.01.78-.61,1.43-1.4,1.45h-.02Z"/>
  <path class="st9" d="M291.37,151.03h-.02c-.78-.01-1.41-.66-1.4-1.45.32-18.76-1.1-35.83-4.22-50.73-.16-.77.33-1.52,1.1-1.68.76-.16,1.52.33,1.68,1.1,3.17,15.11,4.61,32.39,4.28,51.36-.01.78-.65,1.4-1.42,1.4Z"/>
  <path class="st9" d="M204.28,100.47c-.15,0-.29-.02-.44-.07-.75-.24-1.16-1.04-.91-1.79,2.14-6.59,6.17-10.07,11.98-10.34.79-.03,1.45.57,1.49,1.35.04.78-.57,1.45-1.35,1.49-4.57.22-7.65,2.96-9.41,8.38-.19.6-.75.98-1.35.98Z"/>
  <path class="st9" d="M287.23,100.47c-.6,0-1.16-.38-1.35-.98-1.75-5.42-4.83-8.16-9.4-8.38-.78-.04-1.39-.7-1.35-1.49.04-.78.68-1.39,1.49-1.35,5.81.28,9.84,3.76,11.97,10.34.24.75-.17,1.55-.91,1.79-.15.05-.29.07-.44.07Z"/>
  <path class="st9" d="M227.37,100.47c-.77,0-1.41-.62-1.42-1.4-.03-1.67-.1-6.77-10.03-7.85-.78-.08-1.34-.79-1.26-1.57.08-.78.79-1.34,1.57-1.26,10.27,1.11,12.51,6.39,12.57,10.63.01.78-.61,1.43-1.4,1.44h-.02Z"/>
  <path class="st9" d="M264.14,100.47h-.02c-.79-.01-1.41-.66-1.4-1.44.06-4.23,2.3-9.51,12.57-10.63.8-.08,1.48.48,1.57,1.26s-.48,1.48-1.26,1.57c-9.93,1.08-10.01,6.17-10.03,7.85-.01.78-.65,1.4-1.42,1.4Z"/>
  <path class="st9" d="M231.15,154.19c-.52,0-1.01-.28-1.27-.77-2.32-4.53-3.52-22.27-3.68-54.24,0-.78.63-1.42,1.41-1.43h0c.78,0,1.42.63,1.42,1.41.19,38.7,1.94,50.16,3.37,52.96.36.7.08,1.56-.62,1.91-.21.11-.43.16-.65.16Z"/>
  <path class="st9" d="M260.37,154.19c-.22,0-.44-.05-.65-.16-.7-.36-.98-1.21-.62-1.91,1.43-2.8,3.18-14.26,3.37-52.96,0-.78.64-1.41,1.42-1.41h0c.78,0,1.42.64,1.41,1.43-.16,31.96-1.36,49.7-3.68,54.24-.25.49-.75.77-1.27.77Z"/>
  <path class="st9" d="M238.7,201.4s-.03,0-.04,0c-.78-.02-1.4-.67-1.38-1.46.2-7.41-.86-8.38-.91-8.42-.7-.35-.97-1.19-.62-1.9.35-.7,1.22-.98,1.92-.63,1.92.96,2.63,4.15,2.44,11.02-.02.77-.65,1.38-1.42,1.38Z"/>
  <path class="st9" d="M252.92,201.04c-.78,0-1.42-.64-1.42-1.42,0-8.12,1.07-10.15,2.68-10.7.74-.25,1.55.14,1.8.88.24.69-.09,1.44-.74,1.75-.18.26-.9,1.69-.9,8.06,0,.79-.64,1.42-1.42,1.42Z"/>
  <path class="st9" d="M238.7,313.67c-.79,0-1.42-.64-1.42-1.42v-117.48c0-.79.64-1.42,1.42-1.42s1.42.64,1.42,1.42v117.48c0,.78-.64,1.42-1.42,1.42Z"/>
  <path class="st9" d="M252.82,313.67c-.78,0-1.42-.64-1.42-1.42v-117.48c0-.79.64-1.42,1.42-1.42s1.42.64,1.42,1.42v117.48c0,.78-.64,1.42-1.42,1.42Z"/>
  <path class="st7" d="M218.6,272.74c-1.22,0-2.45-.28-3.6-.85l-1.86-.91-.5-.1c-.88-.18-1.72-.51-2.5-.96l-.22-.13c-.5-.14-.98-.32-1.45-.56l-.97-.48c-.14-.07-.27-.14-.41-.22l-.83-.48-.75-.21c-.27-.08-.53-.17-.79-.27l-2.42-.97c-.46-.19-.91-.41-1.33-.68-.5-.14-.99-.32-1.45-.56-.41-.13-.81-.29-1.19-.48-.13-.04-.26-.08-.39-.13l-2.65-.97c-.08-.03-.15-.06-.23-.09l-1.21-.48c-.21-.08-.42-.18-.63-.28l-.24-.1c-.59-.14-1.16-.35-1.7-.63l-.59-.26c-.92-.18-1.8-.52-2.6-1l-.18-.11c-.64-.18-1.26-.43-1.84-.76l-1.22-.69-.69-.28c-.54-.22-1.06-.49-1.54-.83l-2.22-1.52-.72-.37c-.42-.21-.82-.46-1.19-.74l-.97-.72c-.31-.23-.6-.48-.87-.75l-1.74-1.73-4.15-3.92c-.36-.34-.69-.71-.98-1.11l-1.33-1.82c-.06-.09-.13-.18-.19-.27l-1.59-2.33-.35-.35c-.6-.6-1.09-1.3-1.47-2.06l-.46-.84c-.6-.6-1.09-1.3-1.47-2.06l-.96-1.93c-.08-.16-.16-.33-.23-.5l-1.21-2.9c-.04-.1-.08-.2-.12-.3l-.72-1.93c-.07-.19-.14-.38-.19-.58l-.98-3.38c-.11-.37-.19-.74-.24-1.12l-.06-.4c-.21-.45-.37-.91-.49-1.39l-.37-1.28c-.1-.2-.19-.4-.27-.6l-.48-1.2c-.08-.19-.15-.39-.21-.59l-.35-1.03c-.46-.73-.79-1.53-1-2.36l-.02-.08-.1-.21-.7-1.06c-.47-.7-.82-1.47-1.04-2.28l-.09-.16c-.43-.7-.74-1.46-.94-2.26l-.1-.25c-.36-.71-.6-1.47-.74-2.26l-.21-1.2-.46-1.08c-.17-.4-.31-.81-.41-1.23l-.97-3.87c-.19-.75-.27-1.52-.23-2.29l.25-5.8c.02-.54.1-1.08.23-1.61l.71-2.86c.05-.21.11-.41.18-.61l.36-1.09c1.39-4.22,5.95-6.52,10.17-5.12,1.91.63,3.42,1.9,4.38,3.5.42-.04.84-.05,1.27-.03l4.59.25c.26.01.53.04.79.08l3.15.48c.11.02.21.04.32.06l1.21.24c.3.06.59.13.88.23l4.59,1.45c.11.03.21.07.32.11l2.66.97c.18.06.35.14.53.21l3.09,1.32c.21.08.42.18.62.28l7.25,3.63c.55.28,1.06.61,1.54,1l1.28,1.06,5.38,3.98c.4.29.77.62,1.1.98l1.54,1.65,2.98,2.87c.44.42.83.89,1.16,1.4l3.22,4.9c.19.28.35.57.5.86l.26.52,1.17,1.77c.18.28.35.56.5.86l.97,1.93c.05.11.11.22.15.33l.97,2.17c.13.28.24.57.33.87l.35,1.03c.29.47.54.96.73,1.48l.72,1.94c.07.19.13.39.19.58l.48,1.69c.06.2.11.41.15.61l.04.18.97,1.93c.17.34.32.69.44,1.05l.48,1.45c.08.23.14.47.2.7l1.93,8.21c.05.23.1.46.13.69l.25,1.7c.01.07.02.14.03.21l.47,4.01.71,4.98c.06.45.09.91.08,1.37l-.24,7.98c-.01.46-.07.92-.16,1.37l-.25,1.2c-.25,1.21-.77,2.34-1.52,3.32l-.84,1.09c-1.57,2.02-3.94,3.12-6.37,3.12Z"/>
  <path class="st7" d="M272.01,272.74c-2.43,0-4.8-1.1-6.37-3.12l-.84-1.09c-.76-.98-1.28-2.11-1.52-3.32l-.25-1.2c-.09-.45-.15-.91-.16-1.37l-.24-7.98c-.01-.46.01-.92.08-1.37l.71-4.98.47-4.01c0-.07.02-.14.03-.21l.25-1.7c.03-.23.08-.46.13-.69l1.93-8.21c.06-.24.12-.47.2-.7l.48-1.45c.12-.36.27-.71.44-1.05l.99-2.05c.04-.23.1-.45.16-.67l.48-1.69c.06-.21.13-.41.2-.62l.73-1.94c.19-.5.43-.99.72-1.45l.05-.09.3-.94c.09-.3.2-.59.33-.87l.97-2.17c.05-.11.1-.22.15-.32l.97-1.93c.15-.3.31-.58.5-.86l1.17-1.76.26-.52c.15-.3.32-.59.5-.87l3.22-4.89c.3-.46.65-.89,1.04-1.29l4.83-4.83c.43-.43.9-.81,1.42-1.13l.37-.23c1.53-1.51,3.45-3,5.17-3.95l.61-.5c.47-.39.99-.73,1.54-1l7.25-3.63c.2-.1.41-.2.63-.28l1.06-.42,2.02-.9c.17-.08.35-.15.53-.21l2.66-.97c.11-.04.21-.07.32-.11l4.59-1.45c.29-.09.58-.17.88-.23l1.21-.24c.11-.02.21-.04.32-.06l3.15-.48c.26-.04.53-.07.79-.08l4.59-.25c.42-.02.84-.01,1.26.03.95-1.58,2.44-2.84,4.32-3.48,4.21-1.43,8.78.83,10.21,5.04l.37,1.09c.07.22.14.44.19.67l.71,2.86c.13.53.21,1.07.23,1.61l.25,5.8c.03.77-.05,1.55-.23,2.3l-.97,3.87c-.1.42-.24.83-.41,1.23l-.47,1.12-.2,1.16c-.13.79-.38,1.55-.74,2.26l-.1.24c-.2.8-.51,1.56-.94,2.26l-.1.16c-.23.81-.58,1.58-1.04,2.28l-.83,1.35c-.21.84-.54,1.63-1,2.36l-.06.09-.3.94c-.06.2-.13.39-.21.59l-.48,1.2c-.08.2-.17.4-.27.6l-.13.32-.22.9c-.13.51-.3,1.01-.52,1.48l-.06.42c-.05.36-.13.71-.23,1.05l-.97,3.38c-.06.2-.12.4-.2.6l-.72,1.93c-.04.1-.07.2-.12.29l-1.21,2.9c-.07.17-.15.34-.23.5l-.96,1.93c-.38.76-.88,1.45-1.47,2.06l-.13.17-.33.67c-.38.76-.88,1.45-1.47,2.06l-.35.35-.27.36-1.32,1.98c-.06.09-.12.18-.19.27l-1.33,1.82c-.29.4-.62.77-.98,1.11l-4.15,3.92-1.74,1.73c-.27.27-.56.52-.87.75l-.97.72c-.38.28-.77.53-1.19.74l-.72.36-2.22,1.52c-.48.33-1,.61-1.55.83l-.69.28-1.22.69c-.58.33-1.2.59-1.84.76l-.18.11c-.8.48-1.68.82-2.6,1l-.12.02-.47.24c-.54.27-1.11.48-1.7.63l-.24.1c-.21.1-.42.2-.63.28l-1.21.48c-.07.03-.15.06-.22.09l-2.65.97c-.13.05-.26.09-.39.13-.38.19-.78.35-1.19.48-.47.23-.95.42-1.45.56-.42.27-.86.49-1.33.68l-2.42.97c-.26.1-.52.19-.79.27l-.75.21-.83.48c-.13.08-.27.15-.41.22l-.97.48c-.46.23-.95.42-1.45.56l-.22.13c-.77.46-1.62.78-2.5.96l-.73.2-1.63.81c-1.15.57-2.38.85-3.6.85Z"/>
  <path class="st7" d="M218.84,274.59c-1.65,0-3.28-.51-4.67-1.49l-2.38-1.7c-.11-.08-.21-.16-.32-.24l-.59-.43c-.42-.21-.83-.46-1.21-.74l-.32-.24-1.21-.61c-.14-.07-.27-.14-.4-.22-.39-.09-.77-.21-1.14-.36l-1.12-.45c-.21-.08-.41-.17-.62-.28l-.59-.29-.59-.23-1.12-.37c-.36-.12-.7-.26-1.04-.43l-.55-.27-.93-.23c-.57-.14-1.13-.35-1.65-.61l-2.39-1.2-5.24-2.1c-.21-.08-.41-.17-.61-.27l-.59-.29-.8-.32c-.21-.08-.42-.18-.62-.28l-1.78-.89c-.42-.21-.83-.46-1.21-.74l-.13-.1-2.26-.97c-.14-.06-.28-.13-.42-.2l-1.78-.89c-.3-.15-.59-.32-.87-.5l-.91-.61-.88-.44c-.45-.22-.87-.48-1.27-.79l-.3-.23-1.33-.57c-.61-.26-1.18-.59-1.71-.99l-.15-.07c-.65-.26-1.26-.6-1.82-1.02l-.32-.24-.25-.12c-.14-.07-.27-.14-.41-.22l-1.55-.89s-.07-.04-.1-.06l-2.56-1.48c-.1-.06-.2-.12-.29-.18l-1.78-1.12c-.2-.12-.39-.26-.57-.4l-.89-.67c-.06-.05-.13-.1-.19-.15l-1.18-.94-1.17-.58c-.44-.22-.86-.48-1.25-.78l-.53-.34c-.78-.39-1.48-.9-2.1-1.51l-1.19-1.19-.24-.17c-.57-.41-1.09-.88-1.53-1.42l-1.11-1.34c-.13-.15-.25-.31-.37-.47l-.56-.79c-.05-.07-.09-.13-.14-.2l-.89-1.34c-.19-.28-.35-.57-.5-.87l-.89-1.78c-.1-.2-.19-.4-.27-.6l-.33-.82-.31-.62c-.22-.44-.39-.89-.53-1.36l-.89-3.12c-.06-.2-.1-.39-.15-.59l-.23-1.11c-.11-.53-.16-1.08-.16-1.62v-11.14c0-1.08.22-2.15.64-3.14l.28-2.68.43-6.46.22-4.61c.01-.3.05-.61.1-.9l.22-1.34c.07-.42.17-.84.31-1.25l.45-1.34c.51-1.55,1.49-2.9,2.79-3.88l.89-.67c.06-.05.13-.09.19-.14l.79-.56c.34-.24.69-.45,1.06-.64l.89-.45c2.87-1.43,6.31-1.03,8.77,1.03l2.67,2.24c.18.15.36.31.53.48l.15.15,2.24,1.22,1.04.2c.5.1.99.24,1.46.43l.72.29.63.18,1.03-.08,1.14-.28c1.07-.27,2.18-.31,3.27-.13l5.47.87c.85.13,1.67.4,2.44.79l.57.29.77.31c.65.26,1.26.6,1.82,1.02l1.62,1.21,1.09.73,3.94,2.52c.22.14.44.3.65.46l1.56,1.23c.13.1.26.21.38.32l3.03,2.71,2.02,1.71c.1.08.2.17.29.26l4.79,4.45c.07.07.14.14.21.21l.89.89c.12.12.23.24.34.36l1.46,1.65.78.7c.29.26.57.55.82.85.22.18.43.37.63.57l2.22,2.23,1.46,1.26c.34.29.65.61.93.95l1.11,1.34c.04.05.09.11.13.16l2.45,3.12c.4.51.73,1.06,1,1.64l1.12,2.45c.44.97.69,2.02.72,3.09l.22,7.13c0,.3,0,.6-.02.9l-.45,5.37c-.37,4.37-4.18,7.64-8.56,7.35-4.38-.29-7.72-4.04-7.51-8.43l.16-3.21-2.14-6.59-.26-.52-1.4-2.35-4.07-5.98-.42-.38c-.22-.2-.44-.41-.64-.64l-1.63-1.84-.61-.61-4.54-4.22-1.96-1.66c-.06-.05-.12-.1-.18-.15l-2.93-2.62-1.05-.83-3.67-2.34s-.09-.06-.13-.09l-1.34-.89c-.12-.08-.24-.16-.35-.25l-1.08-.76c-.13-.05-.25-.11-.38-.16l-1.64-.25s-.07-.01-.1-.02l-1.03-.17-.17.04c-.43.11-.87.18-1.31.21l-2.89.23c-.75.06-1.5.01-2.24-.14l-1.12-.23c-.2-.04-.4-.09-.6-.15l-1.56-.45c-.27-.08-.54-.17-.8-.27l-.4-.16-1.55-.32c-.69-.14-1.35-.37-1.98-.68l-.06-.03-.23,3.51c0,.1-.02.21-.03.31l-.45,4.23c-.06.61-.2,1.22-.4,1.8v8.59s.61,2.12.61,2.12l.12.24c.09.19.18.38.26.57l.32.8.52,1.04,1.11,1.56c.34.25.66.52.95.82l.76.76c.33.18.65.39.96.62l.53.34.87.43c.43.21.85.47,1.24.76l.89.66c.08.06.16.12.24.18l1.53,1.21,1.34.84,1.41.81s.08.05.12.07l2.37,1.38.68.34c.43.21.84.47,1.22.75l.19.1c.66.27,1.28.62,1.85,1.05l.1.07.65.27c.15.07.3.13.45.21l.89.45c.44.22.86.48,1.26.78l.29.22.66.33c.31.15.6.32.88.51l.92.61,1.13.56,2.92,1.25c.58.25,1.12.56,1.63.94l.32.24.84.42.8.32c.21.08.42.18.62.28l.59.3,5.3,2.13c.19.08.38.16.56.25l1.88.94.92.23c.56.14,1.11.34,1.63.6l.83.41.8.27c.15.05.29.1.43.16l1.12.45c.21.08.42.18.62.28l.73.35.41.08c.88.18,1.72.5,2.49.96l1.57.88.83.41c.42.21.83.46,1.21.74l.32.24.25.13c.5.25.98.56,1.42.91l.67.54c4.06,1.1,6.62,5.19,5.77,9.38l-.11.56c-.54,2.67-2.4,4.88-4.93,5.88-.96.38-1.96.56-2.96.56Z"/>
  <path class="st7" d="M271.77,274.59c-.99,0-1.99-.18-2.94-.55-2.54-1-4.41-3.22-4.95-5.89l-.11-.56c-.85-4.18,1.71-8.27,5.77-9.38l.67-.54c.44-.35.92-.66,1.42-.91l.25-.13.32-.24c.38-.28.78-.53,1.21-.74l1.49-.75.9-.53c.77-.46,1.61-.78,2.49-.96l.55-.14.59-.3c.2-.1.41-.19.62-.28l1.12-.45c.14-.06.29-.11.43-.16l.8-.27.83-.41c.52-.26,1.07-.46,1.63-.6l1.02-.28,1.79-.89c.18-.09.37-.18.56-.25l5.31-2.13.59-.29c.2-.1.41-.2.62-.28l.8-.32.84-.42.32-.24c.5-.38,1.05-.69,1.63-.94l2.91-1.25,1.14-.57.91-.61c.28-.19.58-.36.88-.51l.66-.33.29-.22c.39-.3.81-.56,1.25-.78l.89-.45c.15-.07.3-.14.45-.21l.75-.35c.57-.43,1.19-.78,1.85-1.05l.15-.07c.4-.3.83-.57,1.29-.79l.68-.34,2.35-1.37s.07-.04.11-.06l1.42-.82,1.36-.85,1.52-1.2c.08-.06.16-.12.24-.18l.89-.66c.38-.28.78-.53,1.2-.74l1.15-.57.29-.22c.3-.23.62-.44.96-.62l.76-.76c.29-.29.61-.57.95-.81l.57-.75.54-.82.52-1.04.32-.8c.08-.19.16-.38.26-.57l.12-.25.61-2.13v-8.58c-.2-.58-.34-1.19-.4-1.8l-.45-4.23c-.01-.1-.02-.21-.03-.31l-.23-3.51-.06.03c-.63.31-1.29.54-1.98.69l-1.56.32-.42.17c-.25.1-.5.19-.76.26l-1.55.45c-.2.06-.41.11-.61.15l-1.12.23c-.74.15-1.49.2-2.24.14l-2.9-.23c-.45-.04-.89-.11-1.32-.22l-.16-.04-1.02.17s-.07.01-.1.02l-1.64.25c-.12.06-.25.11-.38.16l-.13.05-.95.71c-.11.09-.23.17-.35.25l-1.34.89-4.62,3.14c-.36.42-.77.8-1.21,1.14l-2.81,2.13-.97.96c-.18.18-.38.36-.58.52l-2.35,1.92-.36.45c-.15.19-.31.37-.47.54l-2.57,2.67s-.06.07-.1.1l-1.59,1.6-4.24,6.21-1.15,1.92-.16.44-2.48,7.16.15,3.12c.21,4.39-3.13,8.13-7.51,8.42-4.39.29-8.19-2.98-8.56-7.35l-.45-5.37c-.02-.3-.03-.6-.02-.9l.22-7.13c.03-1.07.28-2.12.72-3.09l1.12-2.45c.27-.59.6-1.14,1-1.64l2.45-3.12c.04-.05.09-.11.13-.16l1.11-1.34c.28-.34.59-.66.93-.95l1.46-1.26,2.22-2.23c.2-.2.41-.39.63-.57.16-.19.32-.37.49-.54l2.06-2.07,2.27-2.36.67-.83c.35-.44.75-.84,1.18-1.19l2.7-2.21,1.07-1.06c.25-.25.52-.48.8-.7l2.64-2.05c.47-.54,1-1.03,1.59-1.43l6.79-4.6,1.62-1.21c.56-.42,1.17-.76,1.82-1.02l.77-.31.57-.29c.77-.39,1.59-.66,2.44-.79l5.47-.87c1.09-.18,2.2-.14,3.28.13l1.13.28,1.03.08.63-.18.74-.3c.47-.19.95-.33,1.44-.42l1.11-.22.62-.31,1.56-.9.15-.15c.17-.17.34-.33.53-.48l2.67-2.24c2.46-2.06,5.9-2.46,8.77-1.03l.89.45c.38.19.75.42,1.1.67l.78.56s.08.06.12.08l.9.67c1.31.98,2.3,2.34,2.82,3.9l.45,1.34c.14.41.24.83.31,1.26l.22,1.34c.05.3.08.6.1.9l.22,4.61.43,6.46.28,2.67c.42.99.64,2.06.64,3.14v11.14c0,.54-.06,1.09-.16,1.62l-.23,1.11c-.04.2-.09.4-.15.59l-.89,3.12c-.13.47-.31.92-.52,1.36l-.31.62-.33.82c-.08.2-.17.41-.27.6l-.89,1.78c-.15.3-.32.59-.5.86l-.89,1.34c-.05.07-.09.14-.14.2l-.56.79c-.12.17-.25.34-.38.5l-1.12,1.34c-.43.52-.93.98-1.48,1.37l-.25.18-1.21,1.21c-.61.61-1.32,1.12-2.09,1.51l-.23.11-.3.23c-.4.3-.83.57-1.28.79l-1.33.71-.99.8c-.06.05-.13.1-.19.15l-.89.67c-.19.14-.39.28-.59.41l-1.79,1.12c-.09.05-.17.11-.26.15l-2.57,1.49s-.07.04-.11.06l-1.55.89c-.14.08-.29.16-.43.23l-.22.11-.28.22c-.57.43-1.19.78-1.85,1.05l-.15.07c-.53.4-1.1.73-1.71.99l-1.34.57-.3.23c-.4.3-.82.56-1.27.78l-.88.44-.91.61c-.28.19-.58.36-.88.51l-1.79.89c-.13.06-.26.12-.39.18l-2.39,1.08c-.38.28-.78.53-1.21.74l-1.78.89c-.2.1-.41.2-.63.28l-.8.32-.58.29c-.2.1-.41.19-.61.28l-5.23,2.1-2.39,1.2c-.53.26-1.08.47-1.65.61l-.93.23-.55.27c-.33.17-.68.31-1.04.43l-1.7.61-.59.29c-.2.1-.41.19-.61.27l-1.12.45c-.37.15-.75.27-1.14.36-.13.08-.27.15-.41.22l-1.21.61-.32.24c-.38.28-.79.53-1.21.75l-.13.07-.45.36c-.11.09-.22.17-.34.25l-2.32,1.66c-1.39,1-3.04,1.51-4.7,1.51Z"/>
  <path class="st7" d="M321.24,243.73c-2.6,0-5.14-1.25-6.7-3.57-2.48-3.69-1.49-8.7,2.2-11.17l1.67-1.12c3.69-2.48,8.7-1.49,11.17,2.2,2.48,3.69,1.49,8.7-2.2,11.17l-1.67,1.12c-1.38.92-2.94,1.37-4.48,1.37Z"/>
  <path class="st7" d="M169.36,243.73c-1.54,0-3.1-.44-4.48-1.37l-1.67-1.12c-3.69-2.48-4.68-7.48-2.2-11.17,2.48-3.69,7.48-4.68,11.17-2.2l1.67,1.12c3.69,2.48,4.68,7.48,2.2,11.17-1.55,2.32-4.1,3.57-6.7,3.57Z"/>
  <path class="st5" d="M211.17,224.03c-.77,0-1.53-.38-1.98-1.07l-.18-.27c-.08-.13-.15-.26-.21-.4l-.29-.72-.34-.58-.73-.88-4.16-4.43-.8-.64c-.08-.07-.16-.14-.23-.21l-1.37-1.44-.8-.58s-.06-.04-.08-.06l-.7-.56-.67-.33c-.1-.05-.2-.11-.29-.17l-2.31-1.6s-.09-.06-.13-.1l-.7-.56-1.2-.6c-.09-.05-.19-.1-.27-.16l-2.28-1.55-.84-.34c-.15-.06-.29-.14-.43-.23l-.95-.64-.42-.21h-.25c-1.31,0-2.37-1.06-2.37-2.37s1.06-2.37,2.37-2.37h.81c.37,0,.73.09,1.06.25l1.06.53c.09.05.18.1.26.15l.87.58.84.34c.15.06.3.14.44.24l2.36,1.61,1.28.64c.15.07.29.16.42.27l.83.66,2.11,1.46.74.37c.15.07.29.16.42.27l.85.68.93.68c.12.09.23.18.33.29l1.41,1.49.77.62c.06.05.13.11.19.17l.71.71,3.71,3.97s.06.07.09.1l.89,1.07c.08.09.15.2.21.3l.53.89c.06.1.11.21.16.32l.33.75c.72,1.09.41,2.56-.68,3.28-.4.26-.85.39-1.3.39Z"/>
  <path class="st5" d="M279.44,224.03c-.45,0-.9-.13-1.3-.39-1.09-.72-1.4-2.19-.68-3.28l.05-.08.27-.67c.04-.11.1-.21.16-.32l.53-.89c.06-.11.14-.21.21-.3l2.23-2.67,1.66-1.85c.06-.07.13-.14.2-.2l1.38-1.2,2.36-2.28c.08-.08.16-.15.25-.21l.93-.68.85-.68c.13-.1.27-.19.42-.27l.74-.37,3.28-2.24s.09-.06.13-.08l1.16-.66,2.42-1.64c.14-.09.28-.17.44-.24l.84-.34.85-.58c.09-.06.18-.11.28-.16l1.07-.53c.33-.16.69-.25,1.05-.25h.81c1.31,0,2.37,1.06,2.37,2.37s-1.06,2.37-2.37,2.37h-.25l-.43.21-.93.63c-.14.09-.28.17-.44.23l-.84.34-2.28,1.55s-.1.07-.16.1l-1.17.67-1.01.67-2.27,1.57c-.09.06-.19.12-.29.17l-.67.33-.7.56s-.05.04-.08.06l-.84.61-2.29,2.21s-.06.05-.09.08l-1.31,1.15-1.51,1.67-2.05,2.46-.34.58-.29.72c-.06.14-.13.28-.21.4l-.18.27c-.46.69-1.21,1.07-1.98,1.07Z"/>
  <path class="st1" d="M228.85,285.52c-.31,0-.62-.02-.93-.06-29.95-3.93-52.75-14.89-67.76-32.55-14.99-17.64-22.33-42.11-21.82-72.76.06-3.88,3.23-6.99,7.1-6.99.04,0,.08,0,.12,0,3.92.06,7.05,3.3,6.99,7.22-.9,54.28,24.36,84.04,77.22,90.98,3.89.51,6.63,4.08,6.12,7.97-.47,3.58-3.52,6.18-7.04,6.18Z"/>
  <path class="st1" d="M263.35,285.52c-3.51,0-6.57-2.6-7.04-6.18-.51-3.89,2.23-7.46,6.12-7.97,52.86-6.94,78.12-36.7,77.22-90.98-.06-3.92,3.06-7.16,6.99-7.22.04,0,.08,0,.12,0,3.87,0,7.04,3.1,7.1,6.99.51,30.64-6.83,55.12-21.82,72.76-15.01,17.67-37.81,28.62-67.76,32.55-.31.04-.63.06-.93.06Z"/>
  <path class="st1" d="M228.49,285.16c-.35,0-.7-.03-1.06-.08-3.88-.58-6.56-4.2-5.98-8.08,4.12-27.52.26-48.94-11.46-63.66-12.38-15.55-34.28-24.65-65.11-27.06-3.91-.3-6.84-3.72-6.53-7.64.31-3.91,3.74-6.83,7.64-6.53,34.92,2.72,60.2,13.62,75.13,32.38,14.27,17.93,19.11,43.04,14.39,74.62-.53,3.53-3.56,6.06-7.02,6.06Z"/>
  <path class="st1" d="M263.71,285.16c-3.46,0-6.49-2.53-7.02-6.06-4.73-31.58.12-56.68,14.39-74.62,14.93-18.76,40.21-29.65,75.13-32.38,3.92-.31,7.33,2.62,7.64,6.53.31,3.91-2.62,7.33-6.53,7.64-30.83,2.4-52.74,11.51-65.11,27.06-11.72,14.72-15.57,36.14-11.46,63.66.58,3.88-2.09,7.5-5.98,8.08-.36.05-.71.08-1.06.08Z"/>
  <path class="st1" d="M226.33,274.38c-1.98,0-3.94-.82-5.35-2.42l-48.54-55.36c-2.59-2.95-2.29-7.44.66-10.03,2.95-2.59,7.44-2.29,10.03.66l48.54,55.36c2.59,2.95,2.29,7.44-.66,10.03-1.35,1.18-3.02,1.76-4.68,1.76Z"/>
  <path class="st1" d="M265.88,274.38c-1.66,0-3.33-.58-4.68-1.76-2.95-2.59-3.25-7.08-.66-10.03l48.53-55.36c2.59-2.95,7.08-3.25,10.03-.66,2.95,2.59,3.25,7.08.66,10.03l-48.53,55.36c-1.4,1.6-3.37,2.42-5.35,2.42Z"/>
  <path class="st9" d="M142.01,217.2c-.67,0-1.27-.48-1.4-1.16-6.63-35.73-2.37-41.02-.97-42.75,1.02-1.27,2.39-1.97,3.94-2.01.77-.02,1.44.59,1.46,1.38.02.78-.59,1.44-1.38,1.46-.73.02-1.31.33-1.81.96-2.21,2.74-3.73,11.98,1.55,40.45.14.77-.37,1.51-1.14,1.66-.09.02-.17.02-.26.02Z"/>
  <path class="st9" d="M350.2,217.2c-.09,0-.17,0-.26-.02-.77-.14-1.28-.88-1.14-1.66,5.28-28.47,3.76-37.71,1.55-40.45-.51-.63-1.08-.93-1.81-.96-.78-.02-1.4-.68-1.38-1.46.02-.78.68-1.41,1.46-1.38,1.55.05,2.92.74,3.94,2.01,1.4,1.74,5.66,7.03-.97,42.76-.13.68-.72,1.16-1.4,1.16Z"/>
  <path class="st9" d="M202.6,280.59c-.14,0-.28-.02-.43-.07-31.81-10.01-52.46-31.57-61.39-64.08-.21-.76.24-1.54.99-1.75s1.54.24,1.75.99c8.65,31.52,28.67,52.42,59.5,62.12.75.24,1.16,1.03.93,1.78-.19.61-.75.99-1.35.99Z"/>
  <path class="st9" d="M289.6,280.59c-.6,0-1.16-.39-1.36-.99-.24-.75.18-1.55.93-1.78,30.84-9.7,50.85-30.6,59.5-62.12.21-.76.99-1.2,1.75-.99.76.21,1.2.99.99,1.75-8.92,32.51-29.57,54.07-61.39,64.08-.14.04-.29.07-.43.07Z"/>
  <path class="st9" d="M230.93,286.06s-.04,0-.06,0c-12.56-.51-22.18-2.4-28.61-5.62-.7-.35-.99-1.2-.64-1.91.35-.7,1.21-.98,1.91-.64,6.07,3.03,15.3,4.82,27.46,5.32.78.03,1.39.69,1.36,1.48-.03.76-.66,1.36-1.42,1.36Z"/>
  <path class="st9" d="M261.4,286.06c-.76,0-1.39-.6-1.42-1.36-.03-.78.58-1.45,1.36-1.48,12.07-.49,21.26-2.28,27.32-5.32.7-.35,1.56-.07,1.91.64.35.7.07,1.56-.64,1.91-6.42,3.21-16,5.1-28.48,5.62-.02,0-.04,0-.06,0Z"/>
  <path class="st9" d="M215.54,200.73c-.34,0-.68-.12-.95-.37-18.09-16.36-41.69-25.19-70.13-26.26-.78-.03-1.4-.69-1.37-1.47.03-.78.67-1.38,1.47-1.37,29.13,1.09,53.33,10.17,71.93,26.99.58.53.63,1.42.1,2.01-.28.31-.67.47-1.05.47Z"/>
  <path class="st9" d="M276.66,200.73c-.39,0-.77-.16-1.05-.47-.53-.58-.48-1.48.1-2.01,18.6-16.82,42.8-25.9,71.94-26.99.76-.03,1.44.58,1.47,1.37.03.78-.58,1.44-1.37,1.47-28.45,1.06-52.05,9.9-70.14,26.26-.27.25-.61.37-.95.37Z"/>
  <path class="st9" d="M229.81,220.44c-.66,0-1.25-.46-1.39-1.13-.92-4.41-5.54-10.91-13.74-19.3-.55-.56-.54-1.46.02-2.01.56-.55,1.46-.54,2.01.02,8.71,8.91,13.45,15.68,14.49,20.7.16.77-.33,1.52-1.1,1.68-.1.02-.2.03-.29.03Z"/>
  <path class="st9" d="M261.37,222.65c-.12,0-.25-.02-.37-.05-.76-.2-1.21-.98-1-1.74,1.72-6.39,6.94-14.07,15.51-22.83.55-.56,1.45-.57,2.01-.02.56.55.57,1.45.02,2.01-8.22,8.41-13.2,15.67-14.79,21.59-.17.63-.74,1.05-1.37,1.05Z"/>
  <path class="st9" d="M220.24,271.84c-.09,0-.18,0-.28-.03-45.42-8.95-68.56-37.56-68.77-85.03,0-.79.63-1.42,1.41-1.43h0c.78,0,1.42.63,1.42,1.41.11,23.02,5.74,41.59,16.75,55.21,11,13.61,27.74,22.71,49.73,27.04.77.15,1.27.9,1.12,1.67-.13.68-.73,1.15-1.39,1.15Z"/>
  <path class="st9" d="M271.97,271.84c-.67,0-1.26-.47-1.39-1.15-.15-.77.35-1.52,1.12-1.67,21.99-4.33,38.72-13.43,49.72-27.04,11.01-13.62,16.64-32.19,16.75-55.21,0-.78.63-1.39,1.43-1.41.78,0,1.42.64,1.41,1.43-.22,47.47-23.35,76.08-68.76,85.03-.09.02-.19.03-.28.03Z"/>
  <path class="st9" d="M223.31,254.53c-.78,0-1.41-.63-1.42-1.41-.2-17.91-6.05-32.44-17.38-43.16-11.41-10.8-28.73-18.13-51.47-21.78-.78-.12-1.3-.85-1.18-1.63.12-.78.86-1.31,1.63-1.18,46.85,7.51,70.83,30.3,71.25,67.72,0,.78-.62,1.43-1.4,1.44h-.02Z"/>
  <path class="st9" d="M268.89,254.53h-.01c-.78,0-1.41-.65-1.41-1.44.39-37.11,24.36-59.9,71.24-67.72.78-.14,1.51.39,1.64,1.17.13.77-.39,1.51-1.17,1.64-22.77,3.8-40.1,11.2-51.51,22.01-11.33,10.73-17.17,25.17-17.36,42.94,0,.78-.64,1.41-1.42,1.41Z"/>
  <path class="st9" d="M223.47,255.33c-.43,0-.85-.19-1.13-.55-13.06-16.91-27.06-32.9-41.6-47.51-.55-.56-.55-1.46,0-2.01.56-.55,1.46-.55,2.01,0,14.63,14.7,28.7,30.78,41.83,47.78.48.62.37,1.51-.26,1.99-.26.2-.56.3-.87.3Z"/>
  <path class="st9" d="M268.73,255.33c-.3,0-.61-.1-.87-.3-.62-.48-.74-1.37-.26-1.99,13.14-17.01,27.64-33.42,43.09-48.8.56-.55,1.46-.55,2.01,0s.55,1.46,0,2.01c-15.36,15.29-29.78,31.61-42.84,48.52-.28.36-.7.55-1.13.55Z"/>
  <path class="st9" d="M172.84,217.48c-.51,0-1-.28-1.26-.76-1.72-3.25-2.04-6-.96-8.18,1.18-2.37,3.83-3.86,8.12-4.57.77-.13,1.51.4,1.63,1.17.13.77-.4,1.51-1.17,1.63-3.28.54-5.31,1.56-6.04,3.03-.65,1.31-.34,3.19.93,5.58.37.69.1,1.55-.59,1.92-.21.11-.44.17-.66.17Z"/>
  <path class="st9" d="M319.37,217.48c-.22,0-.45-.05-.66-.16-.69-.37-.96-1.23-.59-1.92,1.26-2.39,1.57-4.27.92-5.58-.73-1.47-2.76-2.49-6.04-3.03-.77-.13-1.3-.86-1.17-1.63.13-.77.86-1.3,1.63-1.17,4.29.71,6.95,2.2,8.13,4.57,1.08,2.18.76,4.93-.95,8.17-.25.48-.75.76-1.26.76Z"/>
  <path class="st9" d="M220.56,272c-.39,0-.79-.16-1.07-.48-13.38-15.2-29.41-33.4-48.09-54.58-.52-.59-.46-1.49.13-2.01.59-.52,1.49-.46,2.01.13,18.68,21.18,34.71,39.38,48.09,54.58.52.59.46,1.49-.13,2.01-.27.24-.6.35-.94.35Z"/>
  <path class="st9" d="M271.65,272c-.33,0-.67-.12-.94-.35-.59-.52-.65-1.42-.13-2,13.34-15.17,29.51-33.46,48.05-54.36.52-.59,1.42-.64,2.01-.12.59.52.64,1.42.12,2.01-18.54,20.9-34.7,39.18-48.04,54.35-.28.32-.67.48-1.07.48Z"/>
  <polygon class="st2" points="453.63 406.32 46.37 406.32 68.19 369.96 46.37 333.6 453.63 333.6 431.81 369.96 453.63 406.32"/>
  <path class="st9" d="M75.34,348.21v-.72h12.94v.72c-2.59,0-4.32,1.73-4.32,4.31v26.53c0,12.15,6.9,16.9,15.46,16.9s15.46-4.75,15.46-16.9v-26.53c0-2.59-1.73-4.31-4.31-4.31v-.72h9.35v.72c-2.59,0-4.31,1.73-4.31,4.31v26.53c0,13.52-8.05,19.42-17.98,19.42s-17.98-5.9-17.98-19.42v-26.53c0-2.59-1.73-4.31-4.31-4.31Z"/>
  <path class="st9" d="M121.51,398.47v-.72c2.16,0,3.6-1.44,3.6-3.6v-27.62c0-3.43-2.74-3.32-3.6-3.32v-.72l6.47.02h.72v9.71c2.3-5.18,6.61-9.71,15.27-9.71l-.02,6.26h-.72c-.86-2.52-2.95-4.17-5.03-4.17-.5,0-1.08.14-1.58.36-3.95,1.8-6.83,5.75-7.91,10.5v18.7c0,2.16,1.44,3.6,3.6,3.6v.72h-10.79Z"/>
  <path class="st9" d="M165.58,361.08c-5.11,0-9.78,2.73-12.22,7.12v-8.95h.01v-15.43h-.72l-6.47,3.59v.72c.65-.36,1.29-.5,1.8-.5,1.08,0,1.8.79,1.8,2.3v3.89h-.01v37.74c0,5.39-2.09,5.41-3.6,5.41v.72h6.47s.72-.01.72-.01v-6.33c2.59,4.39,7.84,7.12,12.94,7.12,8.56,0,15.82-6.98,15.82-18.7s-7.98-18.7-16.54-18.7ZM164.86,397.03c-4.53,0-9.35-2.66-11.51-7.19v-20.13c2.16-4.53,6.26-7.19,10.79-7.19,7.41,0,14.02,6.26,14.02,17.26s-5.9,17.26-13.3,17.26Z"/>
  <path class="st9" d="M217.57,397.43c-1.63,0-2.17-1.02-2.17-2.43,0,0,0,.01,0,.01v-20.53c0-8.63-5.09-12.94-13-12.94s-11.9,4.54-12.87,8.62h2.98c4.15.02,10.02.93,13.66,4.75-1.91-1.12-6.12-2.3-10.15-1.35-9.03,2.02-10.66,9.59-9.93,14.31.73,4.71,6.4,12.57,16.38,10.16,6.44-1.56,8.73-6.17,9.34-10.07v6.38c0,2.42,1.13,3.79,3.03,3.82h0s4.58.01,4.58.01v-.73h-1.84ZM206.11,395.27c-6.45,2.92-12.62-2.08-14.81-6.96-2.19-4.88-.34-13.02,6.56-14.14,6.9-1.12,10.16,3.14,10.16,3.14.28.5,3,3.48,3.4,7.91.39,4.43-2.05,8.53-5.3,10.04ZM211.8,375.2v8.2c-.04-.21-.06-.46-.11-.63-3.41-12.8-16.42-13.37-18.87-13.36,1.82-5.35,5.68-6.51,9.48-6.51,10.5,0,9.49,12.3,9.49,12.3Z"/>
  <path class="st9" d="M220.94,363.31v-.72l6.47-.07h.72v9.64c2.3-5.32,7.33-10.36,13.73-10.36,7.12,0,11.43,4.31,11.43,12.22v20.13c0,2.16,1.44,3.6,3.6,3.6v.72h-10.79v-.72c2.16,0,3.6-1.44,3.6-3.6v-19.99c0-6.47-3.74-10.28-8.77-10.28-6.47,0-11.36,5.11-12.8,11.58v18.7c0,2.16,1.44,3.6,3.6,3.6v.72h-10.79v-.72c2.16,0,3.6-1.44,3.6-3.6v-27.15c0-3.52-2.9-3.7-3.6-3.7Z"/>
  <path class="st9" d="M266.07,371.63c0-14.84,12.08-26.84,26.84-26.84s26.84,12,26.84,26.84-12,26.84-26.84,26.84-26.84-12.08-26.84-26.84ZM292.91,396.98c12.3,0,21.99-11.41,21.99-25.35s-9.69-25.35-21.99-25.35-21.99,11.33-21.99,25.35,9.69,25.35,21.99,25.35Z"/>
  <path class="st9" d="M371.05,375.73l-3.51-1.5c-3.01-1.44-5.24-3.18-5.24-6.1,0-3.36,2.87-6.27,7.22-6.82,1.87-.25,3.9.14,3.9.14,3.32.61,7.42,2.46,7.42,6.61h.72v-7.6h-.72c-.21,1.42-.5,1.86-1.08,1.86-1.22,0-3.59-2.61-8.76-2.61-7.54,0-11.35,5.96-11.35,9.99,0,12.15,21.47,9.17,21.47,19.61,0,4.1-3.09,7.68-8.9,7.68-3.23,0-10.99-2.31-12.14-8.2h-.5v8.95h.5c.29-1.64.86-2.16,1.65-2.16,1.87,0,5.17,2.91,10.48,2.91,8.11,0,11.63-6.34,11.63-10.81,0-7.17-6.82-9.58-12.79-11.93Z"/>
  <path class="st9" d="M354.6,397.39c-1.69,0-2.25-1.06-2.25-2.52,0,0,0,.01,0,.01v-21.28c0-8.95-5.27-13.42-13.47-13.42s-12.33,4.71-13.34,8.93h3.09c4.31.02,10.38.96,14.16,4.92-1.98-1.16-6.34-2.38-10.53-1.4-9.36,2.09-11.05,9.95-10.29,14.83.76,4.89,6.63,13.03,16.98,10.53,6.68-1.62,9.05-6.39,9.68-10.44v6.62c0,2.5,1.17,3.93,3.14,3.96h0s4.74.01,4.74.01v-.76h-1.9ZM342.72,395.15c-6.69,3.03-13.09-2.15-15.35-7.21-2.27-5.06-.35-13.49,6.8-14.66,7.15-1.16,10.53,3.26,10.53,3.26.29.52,3.11,3.61,3.52,8.2.41,4.59-2.13,8.84-5.5,10.41ZM348.62,374.35v8.5c-.04-.21-.07-.48-.11-.65-3.54-13.27-17.03-13.86-19.56-13.85,1.89-5.55,5.89-6.75,9.83-6.75,10.89,0,9.84,12.75,9.84,12.75Z"/>
  <path class="st9" d="M412.44,375.73l-3.51-1.5c-3.01-1.44-5.24-3.18-5.24-6.1,0-3.36,2.87-6.27,7.22-6.82,1.87-.25,3.9.14,3.9.14,3.32.61,7.42,2.46,7.42,6.61h.72v-7.6h-.72c-.21,1.42-.5,1.86-1.08,1.86-1.22,0-3.59-2.61-8.76-2.61-7.54,0-11.35,5.96-11.35,9.99,0,12.15,21.47,9.17,21.47,19.61,0,4.1-3.09,7.68-8.9,7.68-3.23,0-10.99-2.31-12.14-8.2h-.5v8.95h.5c.29-1.64.86-2.16,1.65-2.16,1.87,0,5.17,2.91,10.48,2.91,8.11,0,11.63-6.34,11.63-10.81,0-7.17-6.82-9.58-12.79-11.93Z"/>
  <path class="st9" d="M393.68,394v-32.8h-.75l-6.71.08v.75c.67-.37,3.73.38,3.73,3.15v28.83c0,2.24-1.49,3.73-3.73,3.73v.75h11.18v-.75c-2.24,0-3.73-1.49-3.73-3.73Z"/>
  <path class="st9" d="M396.45,392.62l-.35-.56-7.11,2.62-.49.56,3.75,3.23c.37-2.87,3.1-5.2,4.19-5.85Z"/>
</svg>